<svg aria-hidden="true" style="position: absolute; width: 0; height: 0; overflow: hidden;" version="1.1" xmlns="http://www.w3.org/2000/svg" xmlns:xlink="http://www.w3.org/1999/xlink">
<defs>
<symbol id="sunset" viewBox="0 0 24 24">
    <g clip-path="url(#clip0_419_365)">
        <path d="M13 3.41722C12.8653 3.41722 12.7362 3.36372 12.6409 3.26849C12.5457 3.17325 12.4922 3.04409 12.4922 2.90941V0.507812C12.4922 0.373132 12.5457 0.243968 12.6409 0.148735C12.7362 0.0535015 12.8653 0 13 0C13.1347 0 13.2638 0.0535015 13.3591 0.148735C13.4543 0.243968 13.5078 0.373132 13.5078 0.507812V2.90941C13.5078 3.04409 13.4543 3.17325 13.3591 3.26849C13.2638 3.36372 13.1347 3.41722 13 3.41722ZM7.95519 4.76917C7.86596 4.76926 7.77829 4.74584 7.701 4.70126C7.62371 4.65669 7.55953 4.59254 7.51491 4.51527L6.31414 2.43537C6.28027 2.37759 6.25816 2.31369 6.24909 2.24734C6.24002 2.18098 6.24416 2.11349 6.26128 2.04875C6.2784 1.984 6.30815 1.92328 6.34883 1.87008C6.38951 1.81688 6.44031 1.77225 6.49831 1.73877C6.55631 1.70528 6.62036 1.6836 6.68677 1.67497C6.75318 1.66634 6.82064 1.67092 6.88527 1.68847C6.9499 1.70602 7.01043 1.73618 7.06335 1.77721C7.11628 1.81824 7.16057 1.86934 7.19367 1.92755L8.3945 4.0074C8.43905 4.08457 8.46251 4.17209 8.46253 4.26119C8.46255 4.35029 8.43913 4.43783 8.39461 4.51501C8.3501 4.59219 8.28606 4.65631 8.20893 4.70091C8.1318 4.74551 8.04429 4.76909 7.95519 4.76917ZM4.26055 8.46259C4.17156 8.46259 4.08415 8.4391 4.00715 8.3945L1.92755 7.19367C1.86934 7.16057 1.81824 7.11628 1.77721 7.06335C1.73618 7.01043 1.70602 6.9499 1.68847 6.88527C1.67092 6.82064 1.66634 6.75318 1.67497 6.68677C1.6836 6.62036 1.70528 6.55631 1.73877 6.49831C1.77225 6.44031 1.81688 6.38951 1.87008 6.34883C1.92328 6.30815 1.984 6.2784 2.04875 6.26128C2.11349 6.24416 2.18098 6.24002 2.24734 6.24909C2.31369 6.25816 2.37759 6.28027 2.43537 6.31414L4.51516 7.51491C4.61206 7.57081 4.68778 7.65713 4.73058 7.76048C4.77338 7.86383 4.78086 7.97841 4.75186 8.08645C4.72286 8.19448 4.65899 8.28992 4.57019 8.35793C4.48139 8.42595 4.37261 8.46274 4.26075 8.46259H4.26055ZM2.90941 13.5078H0.507812C0.373132 13.5078 0.243968 13.4543 0.148735 13.3591C0.0535015 13.2638 0 13.1347 0 13C0 12.8653 0.0535015 12.7362 0.148735 12.6409C0.243968 12.5457 0.373132 12.4922 0.507812 12.4922H2.90941C3.04409 12.4922 3.17325 12.5457 3.26849 12.6409C3.36372 12.7362 3.41722 12.8653 3.41722 13C3.41722 13.1347 3.36372 13.2638 3.26849 13.3591C3.17325 13.4543 3.04409 13.5078 2.90941 13.5078ZM25.4922 13.5078H23.0906C22.9559 13.5078 22.8267 13.4543 22.7315 13.3591C22.6363 13.2638 22.5828 13.1347 22.5828 13C22.5828 12.8653 22.6363 12.7362 22.7315 12.6409C22.8267 12.5457 22.9559 12.4922 23.0906 12.4922H25.4922C25.6269 12.4922 25.756 12.5457 25.8513 12.6409C25.9465 12.7362 26 12.8653 26 13C26 13.1347 25.9465 13.2638 25.8513 13.3591C25.756 13.4543 25.6269 13.5078 25.4922 13.5078ZM21.7395 8.46259C21.6276 8.46274 21.5188 8.42595 21.43 8.35793C21.3412 8.28992 21.2773 8.19448 21.2483 8.08645C21.2193 7.97841 21.2268 7.86383 21.2696 7.76048C21.3124 7.65713 21.3881 7.57081 21.485 7.51491L23.5648 6.31414C23.6226 6.28027 23.6865 6.25816 23.7529 6.24909C23.8192 6.24002 23.8867 6.24416 23.9515 6.26128C24.0162 6.2784 24.0769 6.30815 24.1301 6.34883C24.1833 6.38951 24.2279 6.44031 24.2614 6.49831C24.2949 6.55631 24.3166 6.62036 24.3252 6.68677C24.3339 6.75318 24.3293 6.82064 24.3117 6.88527C24.2942 6.9499 24.264 7.01043 24.223 7.06335C24.182 7.11628 24.1309 7.16057 24.0726 7.19367L21.9929 8.3945C21.9159 8.43911 21.8284 8.4626 21.7395 8.46259ZM18.0448 4.76917C17.9557 4.76909 17.8682 4.74557 17.7911 4.70096C17.7139 4.65636 17.6499 4.59225 17.6054 4.51506C17.5609 4.43788 17.5374 4.35034 17.5375 4.26124C17.5375 4.17214 17.561 4.08462 17.6055 4.00745L18.8063 1.92755C18.8394 1.86934 18.8837 1.81824 18.9366 1.77721C18.9896 1.73618 19.0501 1.70602 19.1147 1.68847C19.1794 1.67092 19.2468 1.66634 19.3132 1.67497C19.3796 1.6836 19.4437 1.70528 19.5017 1.73877C19.5597 1.77225 19.6105 1.81688 19.6512 1.87008C19.6918 1.92328 19.7216 1.984 19.7387 2.04875C19.7558 2.11349 19.76 2.18098 19.7509 2.24734C19.7418 2.31369 19.7197 2.37759 19.6859 2.43537L18.4851 4.51521C18.4405 4.59249 18.3763 4.65666 18.299 4.70124C18.2217 4.74582 18.134 4.76925 18.0448 4.76917Z" fill="#FDD83B"/>
        <path d="M21.0827 23.3975H14.0156C13.8809 23.3975 13.7518 23.344 13.6565 23.2487C13.5613 23.1535 13.5078 23.0243 13.5078 22.8896C13.5078 22.755 13.5613 22.6258 13.6565 22.5306C13.7518 22.4353 13.8809 22.3818 14.0156 22.3818H21.0827C21.2174 22.3818 21.3465 22.4353 21.4418 22.5306C21.537 22.6258 21.5905 22.755 21.5905 22.8896C21.5905 23.0243 21.537 23.1535 21.4418 23.2487C21.3465 23.344 21.2174 23.3975 21.0827 23.3975ZM12.016 23.3975H4.9173C4.78262 23.3975 4.65345 23.344 4.55822 23.2487C4.46299 23.1535 4.40948 23.0243 4.40948 22.8896C4.40948 22.755 4.46299 22.6258 4.55822 22.5306C4.65345 22.4353 4.78262 22.3818 4.9173 22.3818H12.016C12.1507 22.3818 12.2799 22.4353 12.3751 22.5306C12.4703 22.6258 12.5238 22.755 12.5238 22.8896C12.5238 23.0243 12.4703 23.1535 12.3751 23.2487C12.2799 23.344 12.1507 23.3975 12.016 23.3975ZM17.5491 20.7949H8.45086C8.31618 20.7949 8.18702 20.7414 8.09178 20.6462C7.99655 20.551 7.94305 20.4218 7.94305 20.2871C7.94305 20.1524 7.99655 20.0233 8.09178 19.928C8.18702 19.8328 8.31618 19.7793 8.45086 19.7793H17.5491C17.6838 19.7793 17.813 19.8328 17.9082 19.928C18.0034 20.0233 18.0569 20.1524 18.0569 20.2871C18.0569 20.4218 18.0034 20.551 17.9082 20.6462C17.813 20.7414 17.6838 20.7949 17.5491 20.7949ZM14.3803 26H11.6197C11.485 26 11.3559 25.9465 11.2606 25.8513C11.1654 25.756 11.1119 25.6269 11.1119 25.4922C11.1119 25.3575 11.1654 25.2283 11.2606 25.1331C11.3559 25.0379 11.485 24.9844 11.6197 24.9844H14.3803C14.515 24.9844 14.6441 25.0379 14.7394 25.1331C14.8346 25.2283 14.8881 25.3575 14.8881 25.4922C14.8881 25.6269 14.8346 25.756 14.7394 25.8513C14.6441 25.9465 14.515 26 14.3803 26Z" fill="#80CDF6"/>
        <path d="M20.5741 13.0699C20.5741 11.866 20.2872 10.6795 19.737 9.60868C19.1869 8.53784 18.3895 7.61357 17.4108 6.91249C16.4321 6.2114 15.3004 5.7537 14.1096 5.57734C12.9187 5.40097 11.7029 5.51102 10.5631 5.89836C9.42319 6.28571 8.39209 6.93918 7.55522 7.8046C6.71835 8.67003 6.09983 9.72247 5.75094 10.8747C5.40205 12.0269 5.33284 13.2457 5.54905 14.43C5.76526 15.6143 6.26066 16.73 6.99418 17.6846H19.0058C20.025 16.3624 20.5765 14.7393 20.5741 13.0699Z" fill="#F9AE00"/>
        <path d="M23.8185 18.1924H2.18146C2.04678 18.1924 1.91761 18.1389 1.82238 18.0436C1.72715 17.9484 1.67365 17.8193 1.67365 17.6846C1.67365 17.5499 1.72715 17.4207 1.82238 17.3255C1.91761 17.2303 2.04678 17.1768 2.18146 17.1768H23.8185C23.9532 17.1768 24.0824 17.2303 24.1776 17.3255C24.2728 17.4207 24.3263 17.5499 24.3263 17.6846C24.3263 17.8193 24.2728 17.9484 24.1776 18.0436C24.0824 18.1389 23.9532 18.1924 23.8185 18.1924Z" fill="#80CDF6"/>
        <path d="M13 9.69505C12.8653 9.69505 12.7361 9.74856 12.6409 9.84379C12.5457 9.93902 12.4922 10.0682 12.4922 10.2029V13.6591L11.1177 12.2846C11.0225 12.1894 10.8933 12.1359 10.7586 12.1359C10.624 12.1359 10.4948 12.1894 10.3995 12.2846C10.3043 12.3799 10.2508 12.509 10.2508 12.6437C10.2508 12.7784 10.3043 12.9076 10.3995 13.0028L12.6409 15.2442C12.7361 15.3394 12.8653 15.3929 13 15.3929C13.1347 15.3929 13.2638 15.3394 13.3591 15.2442L15.6004 13.0028C15.6957 12.9076 15.7492 12.7784 15.7492 12.6437C15.7492 12.509 15.6956 12.3799 15.6004 12.2846C15.5052 12.1894 15.376 12.1359 15.2413 12.1359C15.1066 12.1359 14.9775 12.1894 14.8822 12.2846L13.5078 13.6591V10.2029C13.5078 10.0682 13.4543 9.93902 13.3591 9.84379C13.2638 9.74856 13.1347 9.69505 13 9.69505Z" fill="white"/>
    </g>
    <defs>
        <clipPath id="clip0_419_365">
            <rect width="26" height="26" fill="white"/>
        </clipPath>
    </defs>
</symbol>
<symbol id="sunrise" viewBox="0 0 24 24">
    <g clip-path="url(#clip0_419_373)">
        <path d="M13 3.41722C12.8653 3.41722 12.7362 3.36372 12.6409 3.26849C12.5457 3.17325 12.4922 3.04409 12.4922 2.90941V0.507812C12.4922 0.373132 12.5457 0.243968 12.6409 0.148735C12.7362 0.0535015 12.8653 0 13 0C13.1347 0 13.2638 0.0535015 13.3591 0.148735C13.4543 0.243968 13.5078 0.373132 13.5078 0.507812V2.90941C13.5078 3.04409 13.4543 3.17325 13.3591 3.26849C13.2638 3.36372 13.1347 3.41722 13 3.41722ZM7.95519 4.76917C7.86596 4.76926 7.77829 4.74584 7.701 4.70126C7.62371 4.65669 7.55953 4.59254 7.51491 4.51527L6.31414 2.43537C6.28027 2.37759 6.25816 2.31369 6.24909 2.24734C6.24002 2.18098 6.24416 2.11349 6.26128 2.04875C6.2784 1.984 6.30815 1.92328 6.34883 1.87008C6.38951 1.81688 6.44031 1.77225 6.49831 1.73877C6.55631 1.70528 6.62036 1.6836 6.68677 1.67497C6.75318 1.66634 6.82064 1.67092 6.88527 1.68847C6.9499 1.70602 7.01043 1.73618 7.06335 1.77721C7.11628 1.81824 7.16057 1.86934 7.19367 1.92755L8.3945 4.0074C8.43905 4.08457 8.46251 4.17209 8.46253 4.26119C8.46255 4.35029 8.43913 4.43783 8.39461 4.51501C8.3501 4.59219 8.28606 4.65631 8.20893 4.70091C8.1318 4.74551 8.04429 4.76909 7.95519 4.76917ZM4.26055 8.46259C4.17156 8.46259 4.08415 8.4391 4.00715 8.3945L1.92755 7.19367C1.86934 7.16057 1.81824 7.11628 1.77721 7.06335C1.73618 7.01043 1.70602 6.9499 1.68847 6.88527C1.67092 6.82064 1.66634 6.75318 1.67497 6.68677C1.6836 6.62036 1.70528 6.55631 1.73877 6.49831C1.77225 6.44031 1.81688 6.38951 1.87008 6.34883C1.92328 6.30815 1.984 6.2784 2.04875 6.26128C2.11349 6.24416 2.18098 6.24002 2.24734 6.24909C2.31369 6.25816 2.37759 6.28027 2.43537 6.31414L4.51516 7.51491C4.61206 7.57081 4.68778 7.65713 4.73058 7.76048C4.77338 7.86383 4.78086 7.97841 4.75186 8.08645C4.72286 8.19448 4.65899 8.28992 4.57019 8.35793C4.48139 8.42595 4.37261 8.46274 4.26075 8.46259H4.26055ZM2.90941 13.5078H0.507812C0.373132 13.5078 0.243968 13.4543 0.148735 13.3591C0.0535015 13.2638 0 13.1347 0 13C0 12.8653 0.0535015 12.7362 0.148735 12.6409C0.243968 12.5457 0.373132 12.4922 0.507812 12.4922H2.90941C3.04409 12.4922 3.17325 12.5457 3.26849 12.6409C3.36372 12.7362 3.41722 12.8653 3.41722 13C3.41722 13.1347 3.36372 13.2638 3.26849 13.3591C3.17325 13.4543 3.04409 13.5078 2.90941 13.5078ZM25.4922 13.5078H23.0906C22.9559 13.5078 22.8267 13.4543 22.7315 13.3591C22.6363 13.2638 22.5828 13.1347 22.5828 13C22.5828 12.8653 22.6363 12.7362 22.7315 12.6409C22.8267 12.5457 22.9559 12.4922 23.0906 12.4922H25.4922C25.6269 12.4922 25.756 12.5457 25.8513 12.6409C25.9465 12.7362 26 12.8653 26 13C26 13.1347 25.9465 13.2638 25.8513 13.3591C25.756 13.4543 25.6269 13.5078 25.4922 13.5078ZM21.7395 8.46259C21.6276 8.46274 21.5188 8.42595 21.43 8.35793C21.3412 8.28992 21.2773 8.19448 21.2483 8.08645C21.2193 7.97841 21.2268 7.86383 21.2696 7.76048C21.3124 7.65713 21.3881 7.57081 21.485 7.51491L23.5648 6.31414C23.6226 6.28027 23.6865 6.25816 23.7529 6.24909C23.8192 6.24002 23.8867 6.24416 23.9515 6.26128C24.0162 6.2784 24.0769 6.30815 24.1301 6.34883C24.1833 6.38951 24.2279 6.44031 24.2614 6.49831C24.2949 6.55631 24.3166 6.62036 24.3252 6.68677C24.3339 6.75318 24.3293 6.82064 24.3117 6.88527C24.2942 6.9499 24.264 7.01043 24.223 7.06335C24.182 7.11628 24.1309 7.16057 24.0726 7.19367L21.9929 8.3945C21.9159 8.43911 21.8284 8.4626 21.7395 8.46259ZM18.0448 4.76917C17.9557 4.76909 17.8682 4.74557 17.7911 4.70096C17.7139 4.65636 17.6499 4.59225 17.6054 4.51506C17.5609 4.43788 17.5374 4.35034 17.5375 4.26124C17.5375 4.17214 17.561 4.08462 17.6055 4.00745L18.8063 1.92755C18.8394 1.86934 18.8837 1.81824 18.9366 1.77721C18.9896 1.73618 19.0501 1.70602 19.1147 1.68847C19.1794 1.67092 19.2468 1.66634 19.3132 1.67497C19.3796 1.6836 19.4437 1.70528 19.5017 1.73877C19.5597 1.77225 19.6105 1.81688 19.6512 1.87008C19.6918 1.92328 19.7216 1.984 19.7387 2.04875C19.7558 2.11349 19.76 2.18098 19.7509 2.24734C19.7418 2.31369 19.7197 2.37759 19.6859 2.43537L18.4851 4.51521C18.4405 4.59249 18.3763 4.65666 18.299 4.70124C18.2217 4.74582 18.134 4.76925 18.0448 4.76917Z" fill="#FDD83B"/>
        <path d="M21.0827 23.3975H14.0156C13.8809 23.3975 13.7518 23.344 13.6565 23.2487C13.5613 23.1535 13.5078 23.0243 13.5078 22.8896C13.5078 22.755 13.5613 22.6258 13.6565 22.5306C13.7518 22.4353 13.8809 22.3818 14.0156 22.3818H21.0827C21.2174 22.3818 21.3465 22.4353 21.4418 22.5306C21.537 22.6258 21.5905 22.755 21.5905 22.8896C21.5905 23.0243 21.537 23.1535 21.4418 23.2487C21.3465 23.344 21.2174 23.3975 21.0827 23.3975ZM12.016 23.3975H4.9173C4.78262 23.3975 4.65345 23.344 4.55822 23.2487C4.46299 23.1535 4.40948 23.0243 4.40948 22.8896C4.40948 22.755 4.46299 22.6258 4.55822 22.5306C4.65345 22.4353 4.78262 22.3818 4.9173 22.3818H12.016C12.1507 22.3818 12.2799 22.4353 12.3751 22.5306C12.4703 22.6258 12.5238 22.755 12.5238 22.8896C12.5238 23.0243 12.4703 23.1535 12.3751 23.2487C12.2799 23.344 12.1507 23.3975 12.016 23.3975ZM17.5491 20.7949H8.45086C8.31618 20.7949 8.18702 20.7414 8.09178 20.6462C7.99655 20.551 7.94305 20.4218 7.94305 20.2871C7.94305 20.1524 7.99655 20.0233 8.09178 19.928C8.18702 19.8328 8.31618 19.7793 8.45086 19.7793H17.5491C17.6838 19.7793 17.813 19.8328 17.9082 19.928C18.0034 20.0233 18.0569 20.1524 18.0569 20.2871C18.0569 20.4218 18.0034 20.551 17.9082 20.6462C17.813 20.7414 17.6838 20.7949 17.5491 20.7949ZM14.3803 26H11.6197C11.485 26 11.3559 25.9465 11.2606 25.8513C11.1654 25.756 11.1119 25.6269 11.1119 25.4922C11.1119 25.3575 11.1654 25.2283 11.2606 25.1331C11.3559 25.0379 11.485 24.9844 11.6197 24.9844H14.3803C14.515 24.9844 14.6441 25.0379 14.7394 25.1331C14.8346 25.2283 14.8881 25.3575 14.8881 25.4922C14.8881 25.6269 14.8346 25.756 14.7394 25.8513C14.6441 25.9465 14.515 26 14.3803 26Z" fill="#80CDF6"/>
        <path d="M20.5741 13.0699C20.5741 11.866 20.2872 10.6795 19.737 9.60868C19.1869 8.53784 18.3895 7.61357 17.4108 6.91249C16.4321 6.2114 15.3004 5.7537 14.1096 5.57734C12.9187 5.40097 11.7029 5.51102 10.5631 5.89836C9.42319 6.28571 8.39209 6.93918 7.55522 7.8046C6.71835 8.67003 6.09983 9.72247 5.75094 10.8747C5.40205 12.0269 5.33284 13.2457 5.54905 14.43C5.76526 15.6143 6.26066 16.73 6.99418 17.6846H19.0058C20.025 16.3624 20.5765 14.7393 20.5741 13.0699Z" fill="#F9AE00"/>
        <path d="M23.8185 18.1924H2.18146C2.04678 18.1924 1.91761 18.1389 1.82238 18.0436C1.72715 17.9484 1.67365 17.8193 1.67365 17.6846C1.67365 17.5499 1.72715 17.4207 1.82238 17.3255C1.91761 17.2303 2.04678 17.1768 2.18146 17.1768H23.8185C23.9532 17.1768 24.0824 17.2303 24.1776 17.3255C24.2728 17.4207 24.3263 17.5499 24.3263 17.6846C24.3263 17.8193 24.2728 17.9484 24.1776 18.0436C24.0824 18.1389 23.9532 18.1924 23.8185 18.1924Z" fill="#80CDF6"/>
        <path d="M13 15.3929C13.1346 15.3929 13.2638 15.3394 13.359 15.2442C13.4543 15.1489 13.5078 15.0198 13.5078 14.8851L13.5078 11.4289L14.8822 12.8033C14.9775 12.8985 15.1066 12.9521 15.2413 12.9521C15.376 12.9521 15.5052 12.8986 15.6004 12.8033C15.6956 12.7081 15.7491 12.5789 15.7491 12.4443C15.7492 12.3096 15.6957 12.1804 15.6004 12.0852L13.359 9.84378C13.2638 9.74855 13.1346 9.69505 13 9.69505C12.8653 9.69505 12.7361 9.74855 12.6409 9.84378L10.3995 12.0852C10.3043 12.1804 10.2508 12.3096 10.2508 12.4443C10.2508 12.5789 10.3043 12.7081 10.3995 12.8033C10.4948 12.8986 10.6239 12.9521 10.7586 12.9521C10.8933 12.9521 11.0225 12.8985 11.1177 12.8033L12.4922 11.4289L12.4922 14.8851C12.4922 15.0198 12.5457 15.1489 12.6409 15.2442C12.7361 15.3394 12.8653 15.3929 13 15.3929Z" fill="white"/>
    </g>
    <defs>
        <clipPath id="clip0_419_373">
            <rect width="26" height="26" fill="white"/>
        </clipPath>
    </defs>
</symbol>
<symbol id="cloud-icon" viewBox="0 0 24 24">
    <path d="M7.27004 13.01C6.74004 12.74 6.15004 12.6 5.55004 12.6C0.870039 12.93 0.870039 19.74 5.55004 20.07H16.64C17.99 20.08 19.29 19.58 20.28 18.67C23.57 15.8 21.81 10.03 17.48 9.48C15.92 0.110001 2.39004 3.67 5.60004 12.6" fill="#FCFCFC" stroke="currentColor" stroke-width="1.5" stroke-miterlimit="10" stroke-linecap="round" stroke-linejoin="round"/>
    <path d="M15.8501 9.92001C16.3701 9.66001 16.9401 9.52001 17.5201 9.51001" stroke="currentColor" stroke-width="1.5" stroke-miterlimit="10" stroke-linecap="round" stroke-linejoin="round"/>
</symbol>
<symbol id="sun-icon" viewBox="0 0 24 24">
    <path d="M12 18.5C15.5899 18.5 18.5 15.5899 18.5 12C18.5 8.41015 15.5899 5.5 12 5.5C8.41015 5.5 5.5 8.41015 5.5 12C5.5 15.5899 8.41015 18.5 12 18.5Z" fill="#FCFCFC" stroke="currentColor" stroke-width="1.5" stroke-linecap="round" stroke-linejoin="round"/>
    <path d="M19.14 19.14L19.01 19.01M19.01 4.99L19.14 4.86L19.01 4.99ZM4.86 19.14L4.99 19.01L4.86 19.14ZM12 2.08V2V2.08ZM12 22V21.92V22ZM2.08 12H2H2.08ZM22 12H21.92H22ZM4.99 4.99L4.86 4.86L4.99 4.99Z" stroke="currentColor" stroke-width="2" stroke-linecap="round" stroke-linejoin="round"/>
</symbol>
<symbol id="cloud-rain-icon" viewBox="0 0 24 24">
    <path d="M16.61 19.9999C17.95 20.0099 19.24 19.5099 20.23 18.6099C23.5 15.7499 21.75 10.0099 17.44 9.46995C15.9 0.129949 2.42998 3.66995 5.61998 12.5599" fill="#FCFCFC" stroke="currentColor" stroke-width="1.5" stroke-miterlimit="10" stroke-linecap="round" stroke-linejoin="round"/>
    <path d="M7.28011 12.97C6.75011 12.7 6.16011 12.56 5.57011 12.57C0.910109 12.9 0.920108 19.68 5.57011 20.01" fill="#FCFCFC" stroke="currentColor" stroke-width="1.5" stroke-miterlimit="10" stroke-linecap="round" stroke-linejoin="round"/>
    <path d="M15.8201 9.88998C16.3401 9.62998 16.9001 9.48998 17.4801 9.47998" stroke="currentColor" stroke-width="1.5" stroke-miterlimit="10" stroke-linecap="round" stroke-linejoin="round"/>
    <path d="M9.96997 20L7.96997 22" stroke="currentColor" stroke-width="1.5" stroke-miterlimit="10" stroke-linecap="round" stroke-linejoin="round"/>
    <path d="M13.97 20L11.97 22" stroke="currentColor" stroke-width="1.5" stroke-miterlimit="10" stroke-linecap="round" stroke-linejoin="round"/>
    <path d="M13.97 16L11.97 18" stroke="currentColor" stroke-width="1.5" stroke-miterlimit="10" stroke-linecap="round" stroke-linejoin="round"/>
    <path d="M9.96997 16L7.96997 18" stroke="currentColor" stroke-width="1.5" stroke-miterlimit="10" stroke-linecap="round" stroke-linejoin="round"/>
</symbol>
<symbol id="cloud-snow-icon" viewBox="0 0 24 24">
    <path d="M16.61 19.9999C17.95 20.0099 19.24 19.5099 20.23 18.6099C23.5 15.7499 21.75 10.0099 17.44 9.46995C15.9 0.129949 2.42998 3.66995 5.61998 12.5599" fill="#FCFCFC" stroke="currentColor" stroke-width="1.5" stroke-miterlimit="10" stroke-linecap="round" stroke-linejoin="round"/>
    <path d="M7.28011 12.97C6.75011 12.7 6.16011 12.56 5.57011 12.57C0.910109 12.9 0.920108 19.68 5.57011 20.01" fill="#FCFCFC" stroke="currentColor" stroke-width="1.5" stroke-miterlimit="10" stroke-linecap="round" stroke-linejoin="round"/>
    <path d="M15.8201 9.88998C16.3401 9.62998 16.9001 9.48998 17.4801 9.47998" stroke="currentColor" stroke-width="1.5" stroke-miterlimit="10" stroke-linecap="round" stroke-linejoin="round"/>
    <path d="M12.9955 18.5H13.0045" stroke="currentColor" stroke-width="2" stroke-linecap="round" stroke-linejoin="round"/>
    <path d="M8.9955 18.5H9.0045" stroke="currentColor" stroke-width="2" stroke-linecap="round" stroke-linejoin="round"/>
    <path d="M10.9955 21.5H11.0045" stroke="currentColor" stroke-width="2" stroke-linecap="round" stroke-linejoin="round"/>
</symbol>
</defs>
</svg>