<svg width="84" height="84" fill="none" xmlns="http://www.w3.org/2000/svg"><g clip-path="url('#clip0_39_2')"><rect width="84" height="84" rx="42" fill="url('#paint0_linear_39_2')"/><circle cx="42" cy="43" r="11" fill="#FDF1DC"/><path d="M42 84c23.196 0 42-18.804 42-42H0c0 23.196 18.804 42 42 42Z" fill="url('#paint1_radial_39_2')"/><path opacity=".2" d="M63 63c10.404.798 28.737-2.474 33.092-6.16 0 0-22.604 3.855-30.571 3.682-24.021-.522-52.5-10.5-52.5-10.5-2 0 23.183 10.922 49.979 12.978Z" fill="url('#paint2_linear_39_2')"/><path opacity=".2" d="M59.399 45.909c-19.22 2.647-40.223-1.178-37.482-1.969 0 0 21.397 1.773 37.482 1.969Z" fill="#fff"/><path opacity=".2" d="M64.51 49.194C69 52.5 29.5 51 36 50.5c6.5-.5 21.5.658 28.51-1.306Z" fill="url('#paint3_linear_39_2')"/><path d="M84.138 74.25c-6.588 14.578-25.45 25.982-42.486 25.982-11.964 0-26.074-5.614-35.723-14.01-2.124-1.85-4.5-5.484-6.166-8.806-1.604-3.196-1.36-11.76-.182-12.757 4.355-3.685 12.985-4.347 23.39-3.548 26.795 2.055 38.51 12.93 61.167 12.93v.21Z" fill="url('#paint4_linear_39_2')"/><path opacity=".25" d="M82.716 77.026c.522-.91.998-1.836 1.422-2.775v-.21c-11.611 0-20.349-2.856-29.715-5.918-8.91-2.912-18.389-6.01-31.453-7.012-10.404-.799-19.034-.137-23.39 3.548v2c4.356-3.685 12.986-4.347 23.39-3.548 13.064 1.002 22.543 5.1 31.453 8.012 8.98 2.935 17.382 5.681 28.293 5.903Z" fill="url('#paint5_linear_39_2')"/><path d="M75.355 73.55c-3.788 18.924-22.865 36.448-42.891 41.072-14.065 3.247-32.174-3.524-45.796-10.776-2.999-1.597-6.777-5.224-9.637-8.677-2.753-3.322-2.802-10.2-1.688-11.691 4.12-5.514 12.095-11.89 24.543-13.774C31.942 64.848 39 80.5 75.298 73.302l.057.248Z" fill="url('#paint6_linear_39_2')"/><path d="m3.5 66 8.5-8H.5l3 8Z" fill="#220136" fill-opacity=".5"/><path d="M99.5 33c-2.872 0-4.5-1.5-8-1.5-1.787 0 11.5 4.342 8 6-3.248 1.174-19 .158-25.5 0S62 42 62 42l29 .5-1 1 23.5 1V28s-4-2.792-6.5-.5c-3.273 3-4.628 5.5-7.5 5.5Z" fill="#B56C7F"/><path d="M-14 33c2.872 0 4.5-1.5 8-1.5 1.787 0 5 4.5 8.5 6.158 3.248 1.173 6.968-.158 9-.158 2 0 12 4.5 12 4.5l-29 .5 1 1-23.5 1V28s4-2.792 6.5-.5c3.273 3 4.628 5.5 7.5 5.5Z" fill="#B46A7E"/><path d="M3.5 53.7v-3.2L0 53v6h6l.5-3.5-3-1.8Z" fill="url('#paint7_linear_39_2')"/><path d="M3.5 53.78V50.5l7 2.5 1.5 5-6 1 .5-3.5-3-1.72Z" fill="url('#paint8_linear_39_2')"/></g><defs><linearGradient id="paint0_linear_39_2" x1="5" y1="-10" x2="7" y2="96" gradientUnits="userSpaceOnUse"><stop offset=".105" stop-color="#FF2E53"/><stop offset=".606" stop-color="#FEDA42"/><stop offset=".915" stop-color="#FEA747"/></linearGradient><linearGradient id="paint2_linear_39_2" x1="54.501" y1="63.121" x2="54.501" y2="50.022" gradientUnits="userSpaceOnUse"><stop stop-color="#fff"/><stop offset="1" stop-color="#FCEEBC" stop-opacity=".9"/></linearGradient><linearGradient id="paint3_linear_39_2" x1="50.624" y1="52.989" x2="49.617" y2="47.808" gradientUnits="userSpaceOnUse"><stop stop-color="#fff"/><stop offset="1" stop-color="#FCEEBC" stop-opacity=".9"/></linearGradient><linearGradient id="paint4_linear_39_2" x1="77.233" y1="84.213" x2="-1.583" y2="62.798" gradientUnits="userSpaceOnUse"><stop stop-color="#4C1F54"/><stop offset="1" stop-color="#754A6D"/></linearGradient><linearGradient id="paint5_linear_39_2" x1="40" y1="60" x2="38" y2="82" gradientUnits="userSpaceOnUse"><stop stop-color="#fff"/><stop offset="1" stop-color="#FFD987"/></linearGradient><linearGradient id="paint6_linear_39_2" x1="69.512" y1="84.704" x2="-28.058" y2="83.086" gradientUnits="userSpaceOnUse"><stop stop-color="#36023F"/><stop offset="1" stop-color="#6C3361"/></linearGradient><linearGradient id="paint7_linear_39_2" x1="2.25" y1="50.5" x2="2" y2="64" gradientUnits="userSpaceOnUse"><stop stop-color="#09000E"/><stop offset="1" stop-color="#380156"/></linearGradient><linearGradient id="paint8_linear_39_2" x1="5" y1="55.5" x2="15" y2="48" gradientUnits="userSpaceOnUse"><stop stop-color="#8B2D7C"/><stop offset="1" stop-color="#F5C471"/></linearGradient><radialGradient id="paint1_radial_39_2" cx="0" cy="0" r="1" gradientUnits="userSpaceOnUse" gradientTransform="matrix(0 64.5 -406.556 0 40.5 42)"><stop stop-color="#F7C66B"/><stop offset=".118" stop-color="#FF868C"/><stop offset=".333" stop-color="#661B94"/><stop offset=".95" stop-color="#661B94"/></radialGradient><clipPath id="clip0_39_2"><rect width="84" height="84" rx="42" fill="#fff"/></clipPath></defs></svg>