<svg width="84" height="84" fill="none" xmlns="http://www.w3.org/2000/svg"><g clip-path="url('#clip0_211_1231')"><rect width="84" height="84" rx="42" fill="url('#paint0_linear_211_1231')"/><path d="M72.743 27.609c4.546 3.19 5.814 2.593 7.585 1.965 3.843-1.362 6.765-2.494 10.125-1.134v16.404l-45.542-1.44c-5.303-.193.726-2.806 2.088-3.22 1.362-.413 2.544-.79 3.494-1.29 1.128-.592 1.972-1.596 2.958-2.38.905-.719 1.765-1.014 2.853-1.344 1.993-.606 4.786-.88 6.179-2.558 3.087-3.719 6.675-7.52 10.26-5.003Z" fill="url('#paint1_linear_211_1231')"/><path d="M-5.797 42h96.25v3.719c0 26.578-21.546 48.125-48.125 48.125S-5.797 72.298-5.797 45.719V42Z" fill="url('#paint2_linear_211_1231')"/><path d="M104.344 57.119c-.811 0-38.433-8.785-39.47-9.189-4.661-1.817 13.693-4.108 10.285-5.048-3.293-.909-19.815.096-19.815.096 8.157.135 15.785-.198 15.987.22.203.42-18.927 1.94-15.476 5.524 6.03 6.26 21.63 12.637 21.63 12.637h26.859v-4.24Z" fill="#6FEBDB"/><path d="M91.11 61.031c-3.008 4.157-39.43 36.75-71.313 20.508C7.862 75.46 2.226 63.496-.154 57.75c-3.978-9.603 0-15.75 0-15.75H33.03s12.02-.568 7.11 2.188C32.539 48.453 91.109 61.03 91.109 61.03Z" fill="#1E646A"/><path d="M61.594 76.313c-15.422 3.39-54.469-14-34.016-17.5 20.453-3.5 49.438 14.109 34.016 17.5Z" fill="#000" fill-opacity=".4"/><path d="M5.852 52.938c-1.924 1.412-4.266 3.937-4.266 3.937s-2.457-5.795-3.063-9.734c-.606-3.948 0-10.118 0-10.118s2.238 1.296 3.774 1.914c1.536.62 5.086.32 8.75.93 4.735.79 10.376 3.273 11.973 4.006.283.13.49.376.577.674l.739 2.539s-2.205.659-3.063.984C15.367 50.312 8.97 50.65 5.852 52.937Z" fill="#36AA96"/><path d="M5.852 52.938c-1.924 1.412-4.266 3.937-4.266 3.937s-2.457-5.795-3.063-9.734c-.143-.934-.219-1.992-.25-3.063l4.79 2.406 13.562 1.97 5.469-2.298 1.367-2.078.875 3.008s-2.205.659-3.063.984C15.367 50.312 8.97 50.65 5.852 52.937Z" fill="#247E7E"/><path d="M5.852 52.938c-1.924 1.412-4.266 3.937-4.266 3.937s-2.457-5.795-3.063-9.734c-.143-.934-.219-1.992-.25-3.063l4.79 2.406 13.562 1.97 5.469-2.298 1.367-2.078.875 3.008s-2.205.659-3.063.984C15.367 50.312 8.97 50.65 5.852 52.937Z" fill="url('#paint3_linear_211_1231')" fill-opacity=".1"/><path d="M2.297 38.938c1.536.618 5.087.319 8.75.93 2.587.43 5.445 1.367 7.765 2.248l-6.89-1.647-3.227.273 4.867 2.953-12.14-3.39-2.79-1.586-.109-1.696s2.238 1.296 3.774 1.914Z" fill="#20686F"/><path d="M38.106 63.962c.628.668 1.027 1.523 1.304 2.398.414 1.302.581 2.683.49 4.046-.064.966-.26 1.935-.701 2.796-.353.69-.982 1.36-1.755 1.316-.448-.024-.85-.29-1.174-.6-.805-.77-1.259-1.838-1.545-2.914-.496-1.857-.547-3.855.028-5.69.166-.53.392-1.057.776-1.459.384-.402.951-.662 1.498-.562.424.077.785.355 1.08.669Z" fill="#575563"/><path d="M38.74 68.266c.198 1.246.194 2.572-.343 3.714-.156.331-.39.67-.747.752-.475.11-.92-.28-1.182-.69-.415-.647-.616-1.408-.736-2.166-.18-1.142-.186-2.335.191-3.428.097-.278.221-.555.427-.767.205-.212.504-.35.795-.303.296.048.532.274.713.514.515.68.747 1.532.881 2.374Z" fill="#282630"/><path d="M20.756 58.596c.079 1.58-.216 3.912-1.101 3.897-.758-.014-1.51-2.346-1.622-3.945-.11-1.572.163-3.948 1.047-3.933.885.015 1.59 2.296 1.676 3.98Z" fill="#575563"/><path d="M18.06 55.723c.057-.29.13-.588.305-.828.431-.59 1.284-.626 2.014-.606.22.006.448.015.64.12.14.076.249.197.349.32.927 1.148 1.299 2.649 1.453 4.117.11 1.043.072 2.134-.397 3.072-.075.15-.167.3-.309.389-.127.08-.281.103-.43.124l-1.362.19c-.247.035-.461.08-.702.017-.533-.136-.838-.686-1.04-1.197a10.292 10.292 0 0 1-.521-5.718Zm.002 2.471c.075 1.321.29 2.68 1.001 3.795.149.233.35.471.624.5.248.025.445-.148.578-.359.133-.21.182-.462.223-.707.375-2.197.379-4.6-.86-6.452-.087-.131-.188-.264-.332-.326-.197-.085-.435-.012-.595.13-.16.143-.257.343-.333.543-.346.908-.362 1.906-.306 2.876Z" fill="#000"/><path d="M42.061 66.311c.514 1.097.896 2.266 1.022 3.47.125 1.206-.013 2.45-.5 3.56-.164.376-.374.743-.692 1-.21.171-.457.288-.707.39-1.331.543-2.91.711-4.17.022-1.138-.622-1.834-1.833-2.254-3.059a11.119 11.119 0 0 1-.535-4.78c.107-.994.359-1.995.913-2.828.19-.285.42-.553.713-.73.36-.22.791-.288 1.21-.345.388-.053.78-.1 1.17-.072.891.065 1.721.526 2.357 1.152.636.627 1.095 1.412 1.473 2.22Zm-2.65.049c-.278-.875-.677-1.73-1.305-2.398-.294-.314-.655-.592-1.079-.67-.547-.1-1.114.161-1.498.563-.384.402-.61.93-.776 1.46-.575 1.834-.524 3.832-.028 5.69.286 1.075.74 2.144 1.545 2.913.324.31.726.576 1.174.6.773.043 1.402-.626 1.755-1.316.44-.861.637-1.83.702-2.796a10.994 10.994 0 0 0-.49-4.046Z" fill="#090427"/><path d="M17.948 54.983c.026-.02.315.112.3.2.005.45 0 .9.005 1.351.002.185-.134.27-.264.297-.182.038-.393.052-.538-.113-.13-.146-.22-.313-.146-.523.015-.041.003-.092.003-.139 0-.64.003-1.282-.002-1.922-.002-.248.031-.514-.045-.74-.134-.398-.106-.77.01-1.158.075-.258.252-.437.444-.6.354-.299.79-.431 1.232-.521.354-.072.718-.098 1.077-.145.436-.058.872-.12 1.308-.174.311-.04.623-.081.936-.1.111-.007.15-.062.177-.141.293-.892.587-1.784.873-2.68.138-.432.249-.874.39-1.306.101-.316.333-.487.666-.53.408-.05.814-.119 1.222-.17.257-.033.517-.043.774-.074.354-.04.707-.093 1.061-.137.146-.018.294-.02.44-.037.383-.044.765-.095 1.148-.138.252-.028.505-.046.757-.07l1.41-.14c.018-.002.035 0 .053 0l1.47-.036c.363-.01.725-.024 1.087-.034.444-.013.888-.038 1.331-.03.47.044 3.254.367 3.724.414l1.023.105c.475.047.951.092 1.427.14.335.034.67.071 1.005.104.494.048.987.093 1.48.14.336.034.67.067 1.005.106.372.043.742.097 1.114.137.203.022.41.022.614.038.617.048 1.13.316 1.49.812.189.26.257.593.305.92.059.398.14.793.206 1.19.051.312.09.626.142.938.065.385.142.769.206 1.154.053.312.105.624.14.938l.001.013c.038.34.04.356.387.43.633.132 1.27.253 1.903.386.524.11 1.045.233 1.57.343.424.09.852.165 1.277.25.408.084.814.173 1.221.258.43.09.859.178 1.288.266l1.224.253c.37.078.738.159 1.108.237.412.087.826.17 1.238.258.413.087.824.178 1.236.266.417.089.835.178 1.253.264.424.088.85.173 1.273.26l1.239.26 1.11.23c.424.088.848.175 1.271.264.52.11 4.039 1.222 4.559 1.33l.9 9.402c-.303.191-.674.662-1.032.721-.516.086-1.03.185-1.545.278-.396.07-.793.137-1.188.21-.422.078-.84.167-1.263.243-.483.087-.97.158-1.453.248-.458.085-.913.19-1.37.276-.407.077-.817.137-1.224.212-.534.1-1.067.21-1.601.31-.413.076-.828.139-1.24.215-.345.063-.688.141-1.033.204-.412.076-.827.139-1.24.215-.459.085-.915.181-1.374.267-.352.067-.706.123-1.06.187-.4.072-.8.148-1.2.222-.358.066-.715.132-1.072.196-.266.048-.533.09-.798.141-.35.067-.7.14-1.05.21-.409.08-.817.166-1.227.243-.347.064-.698.113-1.045.177-.351.064-.698.172-1.051.198-.363.027-.637.288-1 .248-.183-.02-.333.084-.5 0-.92-.31-2.725-.66-3.642-.979-.565-.196-1.126-.403-1.69-.6-.255-.09-.413-.425-.658-.534-.35-.154-.416-.375-.61-.722-.332-.593-.336-.961-.507-1.612-.185-.706.034-1.505-.343-2.141-.315-.53-.955-.825-1.377-1.27-.398-.42-.269-1.172-.776-1.438-.532-.278-1.347-.724-1.944-.835-.245-.045-1.585-.076-1.693.149-.18.373-.56.824-.556 1.236.003.348-.228.449-.192.798.073.7.248 1.197.413 1.876.03.122.764 1.237.589 1.246a.482.482 0 0 1-.243-.042c-.688-.366-1.371-.74-2.058-1.108-.668-.357-1.338-.708-2.006-1.065l-2.188-1.172c-.668-.356-1.338-.708-2.006-1.064-.687-.367-1.372-.736-2.06-1.103-.534-.285-1.07-.566-1.605-.85-.401-.213-.79-.455-1.206-.633-.278-.118-.438-.293-.514-.569-.03-.11-.058-.22-.092-.329-.201-.639-.39-1.282-.61-1.914-.24-.686-.492-1.37-.772-2.04-.162-.385-.492-.634-.88-.784-.094-.036-.297-.066-.326-.018Z" fill="url('#paint4_linear_211_1231')"/><path d="M72.034 68.248c.358-.06.701-.166 1.004-.358l-.032-8.68a1.312 1.312 0 0 0-1.475-1.296l-23.384 2.198-.215 12.689c.353-.026 1.768-.366 2.118-.43.348-.064.699-.182 1.046-.246.41-.076.818-.162 1.227-.243.35-.07.7-.143 1.05-.21.265-.05.532-.092.798-.14.357-.065.715-.13 1.072-.197.4-.073.8-.15 1.2-.222.354-.064.708-.12 1.06-.186.459-.086.915-.183 1.374-.268.413-.076.828-.139 1.24-.214.345-.064.688-.142 1.033-.205.413-.076.827-.139 1.24-.215.534-.1 1.067-.21 1.601-.31.407-.075.817-.135 1.224-.212.457-.087.912-.191 1.37-.276.483-.09.97-.161 1.453-.248.422-.076.841-.164 1.263-.242.395-.074.792-.14 1.188-.211.515-.093 1.029-.192 1.545-.278Z" fill="url('#paint5_linear_211_1231')"/><path d="M72.034 68.248c.358-.06.701-.166 1.004-.358l-.032-8.68a1.312 1.312 0 0 0-1.475-1.296l-23.384 2.198-.215 12.689c.353-.026 1.768-.366 2.118-.43.348-.064.699-.182 1.046-.246.41-.076.818-.162 1.227-.243.35-.07.7-.143 1.05-.21.265-.05.532-.092.798-.14.357-.065.715-.13 1.072-.197.4-.073.8-.15 1.2-.222.354-.064.708-.12 1.06-.186.459-.086.915-.183 1.374-.268.413-.076.828-.139 1.24-.214.345-.064.688-.142 1.033-.205.413-.076.827-.139 1.24-.215.534-.1 1.067-.21 1.601-.31.407-.075.817-.135 1.224-.212.457-.087.912-.191 1.37-.276.483-.09.97-.161 1.453-.248.422-.076.841-.164 1.263-.242.395-.074.792-.14 1.188-.211.515-.093 1.029-.192 1.545-.278Z" fill="#000" fill-opacity=".21"/><path d="M17.94 54.945c.025-.019.315.113.3.2.005.451 0 .902.004 1.352.002.185-.134.27-.263.297-.183.038-.393.052-.539-.113-.13-.146-.22-.313-.145-.523.014-.042.002-.093.002-.14 0-.64.003-1.28-.001-1.922-.002-.247.03-.513-.045-.739-.134-.398-.106-.77.009-1.158.076-.259.253-.437.444-.6.354-.299.79-.432 1.232-.521.355-.072.718-.098 1.077-.146.436-.057.877-.072 1.313-.127l9.297 3.5 17.5 5.797-.492 12.578c-.01-.125-.587-.107-.7-.145-.92-.31-2.166-.733-3.083-1.05-.566-.197-1.127-.405-1.691-.602-.255-.09-.412-.424-.658-.533-.35-.155-.416-.376-.61-.723-.332-.592-.336-.96-.506-1.61-.185-.707.034-1.506-.344-2.142-.314-.53-.954-.825-1.377-1.27-.397-.42-.268-1.172-.776-1.438-.531-.279-1.346-.724-1.943-.835-.245-.046-1.586-.077-1.694.148-.179.374-.559.825-.555 1.237.003.348-.228.449-.192.797.073.701.248 1.198.412 1.877.03.122.764 1.236.59 1.246a.484.484 0 0 1-.243-.043c-.688-.365-1.372-.739-2.059-1.107-.667-.357-1.337-.709-2.005-1.065-.73-.39-1.458-.782-2.189-1.172-.667-.356-1.337-.709-2.005-1.065-.688-.366-1.373-.736-2.06-1.102-.535-.285-1.07-.566-1.605-.85-.402-.213-.79-.455-1.206-.633-.279-.119-.439-.293-.514-.57-.03-.11-.058-.22-.092-.328-.202-.639-.39-1.282-.611-1.914-.24-.687-.491-1.37-.772-2.04-.162-.385-.491-.634-.88-.784-.094-.036-.297-.066-.325-.019Z" fill="#F83059"/><path d="M29.218 56.09c-.066.22-.078.457-.107.688l-.564 7.804 5.756 3.06s.235.145.332 0c.28-.42-.438-1.764-.438-3.284 0-.806.42-1.52.42-1.52 1.71-.329 4.404 1.8 6.064 7.2.247.802 7.288 2.766 7.288 2.766l.175-12.693-17.215-5.671c-.191-.055-.407-.104-.597-.069-.365.067-.565.385-.724.676-.176.323-.283.687-.39 1.042Z" fill="url('#paint6_linear_211_1231')"/><path d="M24.82 46.73c-.44-.096-.692.035-.814.498l-1.063 4.056c-.01.039 0 .106.027.127.077.06.162.114.252.15.375.149.755.283 1.13.436.777.316 1.55.645 2.327.96.753.306 1.509.604 2.265.901.05.02.25.083.439.142.193.06.39-.077.405-.278l.33-4.703a1.411 1.411 0 0 0-.151-.74 1.27 1.27 0 0 0-.895-.687c-.233-.042-.468-.082-.646-.12-.37-.076-.739-.157-1.108-.235l-.05-.01a195.86 195.86 0 0 0-1.333-.278c-.371-.075-.745-.14-1.115-.22Z" fill="#AFF1F6"/><path d="M49.13 65.962a1.428 1.428 0 0 1 .207-2.083c.606-.462 1.411-.191 1.675.568.276.792-.198 1.6-.805 1.791-.41.13-.76.023-1.077-.276ZM70.586 62.22c.039.29.2.507.416.683.244.199.72.142.9-.106.367-.506.434-1.04.125-1.603-.179-.325-.524-.474-.843-.38-.505.15-.74.935-.598 1.406Z" fill="#F6FFDD"/><path d="M30.84 53.929c-.007.048.33.566.768.478l16.934-1.363-.059-.286a52.09 52.09 0 0 0-.186-.936l-.265-1.27c-.081-.386-.165-.771-.24-1.159-.055-.281-.098-.565-.145-.849-.047-.283-.053-.581-.15-.847-.13-.36-.3-.603-.768-.563-.374.032-.75.05-1.124.071-.421.025-.843.047-1.264.07l-1.194.07-1.212.07-.13.008-1.064.062-1.142.07-1.211.07-1.125.07-1.246.07-1.177.07c-.398.023-.796.05-1.194.069-.35.016-.701.02-1.052.037-.37.018-.814.275-.817.717 0 .088-.018.176-.034.263v.002c-.092.486-.187.971-.279 1.457-.06.313-.12.627-.174.94-.05.295-.09.592-.142.886-.053.297-.118.592-.173.89-.05.276-.099.554-.136.833Z" fill="#39C8BD"/><path d="M34.454 55.196c-.37-.12-.307-.662.08-.694l14.735-1.195a.359.359 0 0 1 .102.006l18.538 3.798c.395.083.368.657-.034.702L48.513 59.63c-.05.006-.101 0-.15-.015l-13.909-4.418Z" fill="url('#paint7_linear_211_1231')" fill-opacity=".16"/><path d="M19.989 58.671c-.021 1.193-.217 2.222-.571 2.127-.258-.07-.764-1.099-.743-2.328.021-1.228.294-2.575.644-2.213a4.49 4.49 0 0 1 .67 2.414Z" fill="#282630"/></g><defs><linearGradient id="paint0_linear_211_1231" x1="42" y1="0" x2="42" y2="100.461" gradientUnits="userSpaceOnUse"><stop offset=".193" stop-color="#A3EED2"/><stop offset=".719" stop-color="#A1F0EB"/></linearGradient><linearGradient id="paint1_linear_211_1231" x1="66.609" y1="26.797" x2="67.43" y2="49.328" gradientUnits="userSpaceOnUse"><stop offset=".594" stop-color="#76E1B9"/><stop offset="1" stop-color="#3FDAE3"/></linearGradient><linearGradient id="paint2_linear_211_1231" x1="36.859" y1="38.445" x2="88.922" y2="100.242" gradientUnits="userSpaceOnUse"><stop offset=".078" stop-color="#4CE0C7"/><stop offset=".609" stop-color="#21D9E4"/></linearGradient><linearGradient id="paint3_linear_211_1231" x1="24.281" y1="42.711" x2="-30.406" y2="77.602" gradientUnits="userSpaceOnUse"><stop offset=".265" stop-color="#47768C"/><stop offset="1" stop-color="#304763"/></linearGradient><linearGradient id="paint4_linear_211_1231" x1="14.82" y1="41.563" x2="57.264" y2="74.305" gradientUnits="userSpaceOnUse"><stop offset=".11" stop-color="#FD224F"/><stop offset=".33" stop-color="#F32355"/><stop offset=".718" stop-color="#CC1758"/></linearGradient><linearGradient id="paint5_linear_211_1231" x1="46.614" y1="57.508" x2="47.946" y2="81.18" gradientUnits="userSpaceOnUse"><stop offset=".202" stop-color="#F83059"/><stop offset=".765" stop-color="#F91DA1"/></linearGradient><linearGradient id="paint6_linear_211_1231" x1="28.547" y1="54.359" x2="30.844" y2="80.883" gradientUnits="userSpaceOnUse"><stop offset=".202" stop-color="#F83059"/><stop offset=".765" stop-color="#F91DA1"/></linearGradient><linearGradient id="paint7_linear_211_1231" x1="27.891" y1="53.867" x2="60.576" y2="60.986" gradientUnits="userSpaceOnUse"><stop offset=".072" stop-opacity=".4"/><stop offset=".74"/></linearGradient><clipPath id="clip0_211_1231"><rect width="84" height="84" rx="42" fill="#fff"/></clipPath></defs></svg>