<svg aria-hidden="true" style="width:0;height:0;position:absolute;overflow:hidden" xmlns="http://www.w3.org/2000/svg"><defs><symbol id="sunset" viewBox="0 0 24 24"><g clip-path="url('#clip0_419_365')"><path d="M13 3.417a.508.508 0 0 1-.508-.508V.508a.508.508 0 0 1 1.016 0v2.401a.508.508 0 0 1-.508.508ZM7.955 4.77a.508.508 0 0 1-.44-.254l-1.2-2.08a.508.508 0 1 1 .879-.507l1.2 2.08a.508.508 0 0 1-.439.761ZM4.261 8.463a.506.506 0 0 1-.254-.068l-2.08-1.201a.508.508 0 1 1 .508-.88l2.08 1.2a.508.508 0 0 1-.254.949Zm-1.352 5.045H.508a.508.508 0 0 1 0-1.016h2.401a.508.508 0 0 1 0 1.016Zm22.583 0h-2.401a.508.508 0 1 1 0-1.016h2.401a.508.508 0 0 1 0 1.016ZM21.74 8.463a.508.508 0 0 1-.254-.948l2.08-1.2a.508.508 0 1 1 .508.879l-2.08 1.2a.506.506 0 0 1-.253.069Zm-3.694-3.694a.507.507 0 0 1-.44-.762l1.201-2.08a.508.508 0 1 1 .88.508l-1.2 2.08a.508.508 0 0 1-.441.254Z" fill="#FDD83B"/><path d="M21.083 23.398h-7.067a.508.508 0 0 1 0-1.016h7.067a.508.508 0 0 1 0 1.015Zm-9.067 0H4.917a.508.508 0 1 1 0-1.016h7.099a.508.508 0 1 1 0 1.015Zm5.533-2.603H8.451a.508.508 0 0 1 0-1.016h9.098a.508.508 0 1 1 0 1.016ZM14.38 26h-2.76a.508.508 0 0 1 0-1.016h2.76a.508.508 0 0 1 0 1.016Z" fill="#80CDF6"/><path d="M20.574 13.07a7.573 7.573 0 1 0-13.58 4.615h12.012a7.541 7.541 0 0 0 1.568-4.615Z" fill="#F9AE00"/><path d="M23.819 18.192H2.18a.508.508 0 1 1 0-1.015h21.637a.508.508 0 1 1 0 1.015Z" fill="#80CDF6"/><path d="M13 9.695a.508.508 0 0 0-.508.508v3.456l-1.374-1.374a.508.508 0 0 0-.719.718l2.242 2.241a.508.508 0 0 0 .718 0l2.241-2.241a.508.508 0 1 0-.718-.718l-1.374 1.374v-3.456A.508.508 0 0 0 13 9.695Z" fill="#fff"/></g><defs><clipPath id="clip0_419_365"><path fill="#fff" d="M0 0h26v26H0z"/></clipPath></defs></symbol><symbol id="sunrise" viewBox="0 0 24 24"><g clip-path="url('#clip0_419_373')"><path d="M13 3.417a.508.508 0 0 1-.508-.508V.508a.508.508 0 0 1 1.016 0v2.401a.508.508 0 0 1-.508.508ZM7.955 4.77a.508.508 0 0 1-.44-.254l-1.2-2.08a.508.508 0 1 1 .879-.507l1.2 2.08a.508.508 0 0 1-.439.761ZM4.261 8.463a.506.506 0 0 1-.254-.068l-2.08-1.201a.508.508 0 1 1 .508-.88l2.08 1.2a.508.508 0 0 1-.254.949Zm-1.352 5.045H.508a.508.508 0 0 1 0-1.016h2.401a.508.508 0 0 1 0 1.016Zm22.583 0h-2.401a.508.508 0 1 1 0-1.016h2.401a.508.508 0 0 1 0 1.016ZM21.74 8.463a.508.508 0 0 1-.254-.948l2.08-1.2a.508.508 0 1 1 .508.879l-2.08 1.2a.506.506 0 0 1-.253.069Zm-3.694-3.694a.507.507 0 0 1-.44-.762l1.201-2.08a.508.508 0 1 1 .88.508l-1.2 2.08a.508.508 0 0 1-.441.254Z" fill="#FDD83B"/><path d="M21.083 23.398h-7.067a.508.508 0 0 1 0-1.016h7.067a.508.508 0 0 1 0 1.015Zm-9.067 0H4.917a.508.508 0 1 1 0-1.016h7.099a.508.508 0 1 1 0 1.015Zm5.533-2.603H8.451a.508.508 0 0 1 0-1.016h9.098a.508.508 0 1 1 0 1.016ZM14.38 26h-2.76a.508.508 0 0 1 0-1.016h2.76a.508.508 0 0 1 0 1.016Z" fill="#80CDF6"/><path d="M20.574 13.07a7.573 7.573 0 1 0-13.58 4.615h12.012a7.541 7.541 0 0 0 1.568-4.615Z" fill="#F9AE00"/><path d="M23.819 18.192H2.18a.508.508 0 1 1 0-1.015h21.637a.508.508 0 1 1 0 1.015Z" fill="#80CDF6"/><path d="M13 15.393a.508.508 0 0 0 .508-.508V11.43l1.374 1.374a.508.508 0 0 0 .718-.718L13.36 9.844a.508.508 0 0 0-.718 0l-2.242 2.241a.508.508 0 0 0 .719.718l1.374-1.374v3.456a.508.508 0 0 0 .508.508Z" fill="#fff"/></g><defs><clipPath id="clip0_419_373"><path fill="#fff" d="M0 0h26v26H0z"/></clipPath></defs></symbol><symbol id="cloud-icon" viewBox="0 0 24 24"><path d="M7.27 13.01a3.79 3.79 0 0 0-1.72-.41c-4.68.33-4.68 7.14 0 7.47h11.09c1.35.01 2.65-.49 3.64-1.4 3.29-2.87 1.53-8.64-2.8-9.19C15.92.11 2.39 3.67 5.6 12.6" fill="#FCFCFC" stroke="currentColor" stroke-width="1.5" stroke-miterlimit="10" stroke-linecap="round" stroke-linejoin="round"/><path d="M15.85 9.92c.52-.26 1.09-.4 1.67-.41" stroke="currentColor" stroke-width="1.5" stroke-miterlimit="10" stroke-linecap="round" stroke-linejoin="round"/></symbol><symbol id="sun-icon" viewBox="0 0 24 24"><path d="M12 18.5a6.5 6.5 0 1 0 0-13 6.5 6.5 0 0 0 0 13Z" fill="#FCFCFC" stroke="currentColor" stroke-width="1.5" stroke-linecap="round" stroke-linejoin="round"/><path d="m19.14 19.14-.13-.13m0-14.02.13-.13-.13.13ZM4.86 19.14l.13-.13-.13.13ZM12 2.08V2v.08ZM12 22v-.08.08ZM2.08 12H2h.08ZM22 12h-.08.08ZM4.99 4.99l-.13-.13.13.13Z" stroke="currentColor" stroke-width="2" stroke-linecap="round" stroke-linejoin="round"/></symbol><symbol id="moon-icon" viewBox="0 0 24 24"><path d="M2.03 12.42c.36 5.15 4.73 9.34 9.96 9.57 3.69.16 6.99-1.56 8.97-4.27.82-1.11.38-1.85-.99-1.6-.67.12-1.36.17-2.08.14C13 16.06 9 11.97 8.98 7.14c-.01-1.3.26-2.53.75-3.65.54-1.24-.11-1.83-1.36-1.3C4.41 3.86 1.7 7.85 2.03 12.42Z" stroke="currentColor" fill="#FCFCFC" stroke-width="1.5" stroke-linecap="round" stroke-linejoin="round"/></symbol><symbol id="cloud-rain-icon" viewBox="0 0 24 24"><path d="M16.61 20c1.34.01 2.63-.49 3.62-1.39 3.27-2.86 1.52-8.6-2.79-9.14C15.9.13 2.43 3.67 5.62 12.56" fill="#FCFCFC" stroke="currentColor" stroke-width="1.5" stroke-miterlimit="10" stroke-linecap="round" stroke-linejoin="round"/><path d="M7.28 12.97c-.53-.27-1.12-.41-1.71-.4-4.66.33-4.65 7.11 0 7.44" fill="#FCFCFC" stroke="currentColor" stroke-width="1.5" stroke-miterlimit="10" stroke-linecap="round" stroke-linejoin="round"/><path d="M15.82 9.89c.52-.26 1.08-.4 1.66-.41M9.97 20l-2 2M13.97 20l-2 2M13.97 16l-2 2M9.97 16l-2 2" stroke="currentColor" stroke-width="1.5" stroke-miterlimit="10" stroke-linecap="round" stroke-linejoin="round"/></symbol><symbol id="cloud-snow-icon" viewBox="0 0 24 24"><path d="M16.61 20c1.34.01 2.63-.49 3.62-1.39 3.27-2.86 1.52-8.6-2.79-9.14C15.9.13 2.43 3.67 5.62 12.56" fill="#FCFCFC" stroke="currentColor" stroke-width="1.5" stroke-miterlimit="10" stroke-linecap="round" stroke-linejoin="round"/><path d="M7.28 12.97c-.53-.27-1.12-.41-1.71-.4-4.66.33-4.65 7.11 0 7.44" fill="#FCFCFC" stroke="currentColor" stroke-width="1.5" stroke-miterlimit="10" stroke-linecap="round" stroke-linejoin="round"/><path d="M15.82 9.89c.52-.26 1.08-.4 1.66-.41" stroke="currentColor" stroke-width="1.5" stroke-miterlimit="10" stroke-linecap="round" stroke-linejoin="round"/><path d="M12.995 18.5h.01M8.995 18.5h.01M10.995 21.5h.01" stroke="currentColor" stroke-width="2" stroke-linecap="round" stroke-linejoin="round"/></symbol><symbol id="cloud-thunder-icon" viewBox="0 0 24 24"><path d="M16.61 20c1.34.01 2.63-.49 3.62-1.39 3.27-2.86 1.52-8.6-2.79-9.14C15.9.13 2.43 3.67 5.62 12.56" stroke="currentColor" stroke-width="1.5" stroke-miterlimit="10" stroke-linecap="round" stroke-linejoin="round"/><path d="M7.28 12.97c-.53-.27-1.12-.41-1.71-.4-4.66.33-4.65 7.11 0 7.44M15.82 9.89c.52-.26 1.08-.4 1.66-.41M9.23 19.16h1v2.33c0 .34.43.51.65.25l2.45-2.79c.3-.34.17-.62-.28-.62h-1V16c0-.34-.43-.51-.65-.25l-2.45 2.79c-.3.34-.17.62.28.62Z" stroke="currentColor" stroke-width="1.5" stroke-miterlimit="10" stroke-linecap="round" stroke-linejoin="round"/></symbol><symbol id="wind-icon" viewBox="0 0 24 24"><path d="M2 15h16.5c1.93 0 3.5 1.57 3.5 3.5S20.43 22 18.5 22 15 20.43 15 18.5V18M2 12h16.5c1.92 0 3.5-1.57 3.5-3.5C22 6.58 20.42 5 18.5 5A3.51 3.51 0 0 0 15 8.5V9" stroke="currentColor" stroke-width="1.5" stroke-miterlimit="10" stroke-linecap="round" stroke-linejoin="round"/><path d="M2 9h7.31a2.69 2.69 0 1 0-2.69-2.69v.38" stroke="currentColor" stroke-width="1.5" stroke-miterlimit="10" stroke-linecap="round" stroke-linejoin="round"/></symbol><symbol id="fogg-icon" viewBox="0 0 24 24"><path d="M4.29 11.62C1.09 2.69 14.62-.87 16.17 8.5c1.93.24 3.34 1.52 4.03 3.12" stroke="currentColor" stroke-width="1.5" stroke-miterlimit="10" stroke-linecap="round" stroke-linejoin="round"/><path d="M14.54 8.93c.52-.26 1.09-.4 1.67-.41M4 15.03h16M6 18.03h12M9 21.03h6" stroke="currentColor" stroke-width="1.5" stroke-miterlimit="10" stroke-linecap="round" stroke-linejoin="round"/></symbol><symbol id="internet-icon" viewBox="0 0 24 24"><g clip-path="url('#clip0_7_6620')" stroke="currentColor" stroke-width="1.5" stroke-miterlimit="10"><path d="M12 21a9 9 0 1 0-.001-18.001A9 9 0 0 0 12 21Z"/><path d="M12 21c2.21 0 4-4.03 4-9s-1.79-9-4-9-4 4.03-4 9 1.79 9 4 9Z"/><path d="M3 11.58c5.95 1.1 12.05 1.1 18 0"/></g><defs><clipPath id="clip0_7_6620"><path fill="#fff" d="M0 0h24v24H0z"/></clipPath></defs></symbol></defs></svg>