<svg width="84" height="84" fill="none" xmlns="http://www.w3.org/2000/svg"><g clip-path="url('#clip0_2_340')" id="Weather / Morning / Cold / Snow / 1"><rect width="84" height="84" rx="42" fill="url('#paint0_linear_2_340')"/><path id="Oval 4" opacity=".6" d="M64.379 15.218h-4.86c-1.498 0-2.711-1.259-2.711-2.81 0-1.553 1.213-2.812 2.71-2.812.452 0 .878.115 1.253.318.521-1.57 1.958-2.696 3.648-2.696 2.13 0 3.858 1.79 3.858 4 0 .045 0 .09-.002.135a2.065 2.065 0 0 1 1.044 1.81c0 1.135-.886 2.055-1.98 2.055h-2.96.04-.04Z" fill="url('#paint1_linear_2_340')"/><path id="Path 55" fill-rule="evenodd" clip-rule="evenodd" d="m39.362 41 61.598 33.919v29.051H-17l.558-27.65L39.362 41Z" fill="#198FEA"/><path id="Path 55_2" fill-rule="evenodd" clip-rule="evenodd" d="m38.515 43.712 3.465.848-.267-2.25L60.79 52.854h-3.236l-1.368 1.007-7.694-4.344 5.914 5.655-1.544 1.137.951 2.586-6.865 3.101-6.975-6.91 4.487.817L41.62 51.5l6.873 3.196-5.816-5.178 2.618.883-6.78-6.688Z" fill="url('#paint2_linear_2_340')"/><path id="Path 55_3" fill-rule="evenodd" clip-rule="evenodd" d="m61.578 55.048 4.292-1.61 18.496 12.759-2.899 3.019-3.195-1.082 2.015 2.317-4.982 5.195-7.21-3.16 4.112 7.4-12.973-9.183-.346-5.836-3.252-4.44 3.036.78-1.038-4.221 4.607-.489-.663-1.449Z" fill="url('#paint3_linear_2_340')"/><path id="Path 55_4" fill-rule="evenodd" clip-rule="evenodd" d="m34.263 61.653 6.524 3.472v-2.338L54.26 74.632l-2.133-4.739L60 72.485l7.715 9.286-5.974.85-12.087-5.75 6.1 6.6-7.202 1.024-14.288-12.832v-4.079l4.252 2.31-4.252-8.24Z" fill="url('#paint4_linear_2_340')"/><path id="Path 55_5" fill-rule="evenodd" clip-rule="evenodd" d="m12.94 62.766-.595-3.15 6.727 2.38 6.727 5.48-6.716-.704-6.142-4.006Z" fill="url('#paint5_linear_2_340')"/><path id="Path 55_6" fill-rule="evenodd" clip-rule="evenodd" d="m16.15 71.515-2.165-3.556 5.448 1.279-.877 1.442-2.406.835Z" fill="url('#paint6_linear_2_340')"/><path id="Path 55_7" fill-rule="evenodd" clip-rule="evenodd" d="M18.74 57.156h2.135l-.985-2.07 2.883 1.26 3.026 2.476-3.89 1.15-3.168-2.816Z" fill="url('#paint7_linear_2_340')"/><path id="Oval 4_2" opacity=".5" d="M14.833 30h6.721c2.07 0 3.75-1.73 3.75-3.865 0-2.134-1.68-3.865-3.75-3.865-.625 0-1.214.158-1.732.436C19.101 20.55 17.115 19 14.777 19c-2.946 0-5.335 2.462-5.335 5.5l.003.186A2.837 2.837 0 0 0 8 27.176C8 28.736 9.227 30 10.74 30h4.093-.056.056Z" fill="url('#paint8_linear_2_340')"/><circle id="Oval" cx="39" cy="25" r="1" fill="#fff"/><circle id="Oval_2" opacity=".8" cx="38" cy="61" r="1" fill="#fff"/><circle id="Oval_3" opacity=".9" cx="62" cy="15" r="1" fill="#fff"/><circle id="Oval_4" opacity=".7" cx="58" cy="44" r="1" fill="#fff"/><circle id="Oval_5" opacity=".7" cx="53" cy="68" r="1" fill="#fff"/><circle id="Oval_6" cx="40.5" cy="46.5" r=".5" fill="#fff"/><circle id="Oval_7" cx="32.5" cy="48.5" r=".5" fill="#fff"/><circle id="Oval_8" cx="22.5" cy="48.5" r=".5" fill="#fff"/><circle id="Oval Copy" cx="15.5" cy="32.5" r=".5" fill="#fff"/><circle id="Oval_9" cx="26.5" cy="25.5" r=".5" fill="#fff"/><g id="Group 3"><g id="Group 2" fill="#fff"><circle id="Oval_10" cx=".5" cy=".5" r=".5" transform="matrix(-1 0 0 1 68 62)"/><circle id="Oval_11" cx=".5" cy=".5" r=".5" transform="matrix(-1 0 0 1 71 55)"/></g></g><g id="Group 3 Copy 2"><g id="Group 2_2" fill="#fff"><circle id="Oval_12" cx=".5" cy=".5" r=".5" transform="matrix(-1 0 0 1 47 61)"/><circle id="Oval_13" cx=".5" cy=".5" r=".5" transform="matrix(-1 0 0 1 50 50)"/><circle id="Oval_14" cx=".5" cy=".5" r=".5" transform="matrix(-1 0 0 1 43 38)"/></g></g><g id="Group 3 Copy 4"><g id="Group 2_3"><circle id="Oval_15" cx=".5" cy=".5" r=".5" transform="matrix(-1 0 0 1 52 41)" fill="#fff"/></g></g><g id="Group 3 Copy 10"><g id="Group 2_4"><circle id="Oval_16" cx=".5" cy=".5" r=".5" transform="matrix(-1 0 0 1 60 24)" fill="#fff"/></g></g><g id="Group 3 Copy 12"><g id="Group 2_5"><circle id="Oval_17" cx="32.512" cy="67.775" r=".5" transform="rotate(50 32.512 67.775)" fill="#fff"/></g></g><g id="Group 3 Copy 19"><g id="Group 2_6" fill="#fff"><circle id="Oval_18" cx="20.918" cy="68.319" r=".5" transform="rotate(50 20.918 68.319)"/><circle id="Oval_19" cx="22.301" cy="60.632" r=".5" transform="rotate(50 22.3 60.632)"/></g></g><g id="Group 3 Copy 14"><g id="Group 2_7" fill="#fff"><circle id="Oval_20" cx=".5" cy=".5" r=".5" transform="matrix(-1 0 0 1 77 59)"/><circle id="Oval_21" cx=".5" cy=".5" r=".5" transform="matrix(-1 0 0 1 75 54)"/><circle id="Oval_22" cx=".5" cy=".5" r=".5" transform="matrix(-1 0 0 1 68 42)"/></g></g><g id="Group 3 Copy"><g id="Group 2_8" fill="#fff"><circle id="Oval_23" cx=".5" cy=".5" r=".5" transform="matrix(-1 0 0 1 61 50)"/><circle id="Oval_24" cx=".5" cy=".5" r=".5" transform="matrix(-1 0 0 1 59 33)"/></g></g><g id="Group 3 Copy 16"><g id="Group 2_9" fill="#fff"><circle id="Oval_25" cx=".5" cy=".5" r=".5" transform="matrix(-1 0 0 1 11 60)"/><circle id="Oval_26" cx=".5" cy=".5" r=".5" transform="matrix(-1 0 0 1 14 49)"/><circle id="Oval_27" cx=".5" cy=".5" r=".5" transform="matrix(-1 0 0 1 9 43)"/><circle id="Oval_28" cx=".5" cy=".5" r=".5" transform="matrix(-1 0 0 1 3 35)"/></g></g><g id="Group 3 Copy 17"><g id="Group 2_10" fill="#fff"><circle id="Oval_29" cx=".5" cy=".5" r=".5" transform="matrix(-1 0 0 1 36 56)"/><circle id="Oval_30" cx=".5" cy=".5" r=".5" transform="matrix(-1 0 0 1 27 39)"/></g></g><g id="Group 3 Copy 20"><g id="Group 2_11" fill="#fff"><circle id="Oval_31" cx=".5" cy=".5" r=".5" transform="matrix(0 -1 -1 0 34 35)"/><circle id="Oval_32" cx=".5" cy=".5" r=".5" transform="matrix(0 -1 -1 0 51 26)"/></g></g><g id="Group 3 Copy 18"><g id="Group 2_12" fill="#fff"><circle id="Oval_33" cx="26.5" cy="25.5" r=".5" transform="rotate(-90 26.5 25.5)"/><circle id="Oval_34" cx="10.5" cy="17.5" r=".5" transform="rotate(-90 10.5 17.5)"/></g></g><g id="Group 3 Copy 11"><g id="Group 2_13"><circle id="Oval_35" cx=".5" cy=".5" r=".5" transform="matrix(0 -1 -1 0 39 14)" fill="#fff"/></g></g><g id="Group 3 Copy 13"><g id="Group 2_14" fill="#fff"><circle id="Oval_36" cx=".5" cy=".5" r=".5" transform="matrix(0 -1 -1 0 30 9)"/><circle id="Oval_37" cx=".5" cy=".5" r=".5" transform="matrix(0 -1 -1 0 42 18)"/><circle id="Oval_38" cx=".5" cy=".5" r=".5" transform="matrix(0 -1 -1 0 47 7)"/><circle id="Oval_39" cx=".5" cy=".5" r=".5" transform="matrix(0 -1 -1 0 53 5)"/></g></g><g id="Group 3 Copy 15"><g id="Group 2_15" fill="#fff"><circle id="Oval_40" cx=".5" cy=".5" r=".5" transform="matrix(-1 0 0 1 75 35)"/><circle id="Oval_41" cx=".5" cy=".5" r=".5" transform="matrix(-1 0 0 1 68 23)"/></g></g></g><defs><linearGradient id="paint0_linear_2_340" x1="-11.44" y1="0" x2="-11.44" y2="106.88" gradientUnits="userSpaceOnUse"><stop stop-color="#3BA6FE"/><stop offset="1" stop-color="#D8F4FF"/></linearGradient><linearGradient id="paint1_linear_2_340" x1="56.808" y1="7.218" x2="56.808" y2="15.218" gradientUnits="userSpaceOnUse"><stop stop-color="#fff"/><stop offset="1" stop-color="#fff" stop-opacity=".01"/></linearGradient><linearGradient id="paint2_linear_2_340" x1="34.148" y1="50.589" x2="46.25" y2="65.643" gradientUnits="userSpaceOnUse"><stop stop-color="#91CFFF"/><stop offset="1" stop-color="#198FEA"/></linearGradient><linearGradient id="paint3_linear_2_340" x1="50.004" y1="64.562" x2="66.393" y2="84.132" gradientUnits="userSpaceOnUse"><stop stop-color="#91CFFF"/><stop offset="1" stop-color="#198FEA"/></linearGradient><linearGradient id="paint4_linear_2_340" x1="27.705" y1="71.26" x2="40.593" y2="92.008" gradientUnits="userSpaceOnUse"><stop stop-color="#91CFFF"/><stop offset="1" stop-color="#198FEA"/></linearGradient><linearGradient id="paint5_linear_2_340" x1="9.708" y1="62.922" x2="13.808" y2="70.637" gradientUnits="userSpaceOnUse"><stop stop-color="#91CFFF"/><stop offset="1" stop-color="#198FEA"/></linearGradient><linearGradient id="paint6_linear_2_340" x1="12.918" y1="69.455" x2="14.883" y2="72.764" gradientUnits="userSpaceOnUse"><stop stop-color="#91CFFF"/><stop offset="1" stop-color="#198FEA"/></linearGradient><linearGradient id="paint7_linear_2_340" x1="17.357" y1="57.14" x2="20.131" y2="61.545" gradientUnits="userSpaceOnUse"><stop stop-color="#91CFFF"/><stop offset="1" stop-color="#198FEA"/></linearGradient><linearGradient id="paint8_linear_2_340" x1="25.303" y1="19" x2="25.303" y2="30" gradientUnits="userSpaceOnUse"><stop stop-color="#fff"/><stop offset="1" stop-color="#fff" stop-opacity=".01"/></linearGradient><clipPath id="clip0_2_340"><rect width="84" height="84" rx="42" fill="#fff"/></clipPath></defs></svg>