<svg width="84" height="84" fill="none" xmlns="http://www.w3.org/2000/svg"><g clip-path="url('#clip0_2_25')" id="Weather / Morning / Clear / 2"><ellipse id="Oval 1" cx="41" cy="29.349" rx="11" ry="11.133" fill="#FFD96C"/><path id="Path 55" fill-rule="evenodd" clip-rule="evenodd" d="m39.362 31.373 61.598 34.328v29.401H-17l.558-27.983 55.804-35.745Z" fill="#6EB8AE"/><path id="Path 55_2" fill-rule="evenodd" clip-rule="evenodd" d="m38.515 34.118 3.465.858-.09-2.285 18.919 10.543-3.254.136-1.368 1.02-7.694-4.397 5.914 5.724-1.544 1.15.951 2.617-6.865 3.139-6.975-6.994 4.487.827L41.62 42l6.873 3.234-5.816-5.24 2.618.894-6.78-6.769Z" fill="url('#paint0_linear_2_25')"/><path id="Path 55_3" fill-rule="evenodd" clip-rule="evenodd" d="m61.578 45.591 2.317-.608 20.599 11.524-3.027 3.422-3.195-1.095 2.015 2.345-4.983 5.257-7.21-3.198 4.113 7.49-12.973-9.293-.346-5.907-3.252-4.493 3.036.788-1.038-4.27 4.607-.496-.663-1.466Z" fill="url('#paint1_linear_2_25')"/><path id="Path 55_4" fill-rule="evenodd" clip-rule="evenodd" d="m34.263 52.276 6.524 3.513v-2.366L54.26 65.41l-2.133-4.796L60 63.238l12.715 13.446-5.974.86-17.087-9.867 14.1 13.764L56 82.988 34.263 62.406v-4.128l4.252 2.337-4.252-8.34Z" fill="url('#paint2_linear_2_25')"/><path id="Path 55_5" fill-rule="evenodd" clip-rule="evenodd" d="m12.94 53.402-.595-3.188 6.727 2.409 6.727 5.546-6.716-.713-6.142-4.054Z" fill="url('#paint3_linear_2_25')"/><path id="Path 55_6" fill-rule="evenodd" clip-rule="evenodd" d="m16.15 62.256-2.165-3.599 5.448 1.294-.877 1.46-2.406.845Z" fill="url('#paint4_linear_2_25')"/><path id="Path 55_7" fill-rule="evenodd" clip-rule="evenodd" d="m30.165 49.14-1.89-3.937 5.172 1.633h-3.282v2.305Z" fill="url('#paint5_linear_2_25')"/><path id="Path 55_8" fill-rule="evenodd" clip-rule="evenodd" d="M18.74 47.724h2.135l-.985-2.095 2.883 1.276L25.8 49.41l-3.89 1.164-3.168-2.85Z" fill="url('#paint6_linear_2_25')"/></g><defs><linearGradient id="paint0_linear_2_25" x1="31.023" y1="39.143" x2="43.517" y2="56.915" gradientUnits="userSpaceOnUse"><stop stop-color="#AFF3E9"/><stop offset="1" stop-color="#FFF9ED"/></linearGradient><linearGradient id="paint1_linear_2_25" x1="45.939" y1="53.317" x2="62.066" y2="76.306" gradientUnits="userSpaceOnUse"><stop stop-color="#AFF3E9"/><stop offset="1" stop-color="#FFF9ED"/></linearGradient><linearGradient id="paint2_linear_2_25" x1="23.022" y1="59.758" x2="35.943" y2="83.537" gradientUnits="userSpaceOnUse"><stop stop-color="#AFF3E9"/><stop offset="1" stop-color="#FFF9ED"/></linearGradient><linearGradient id="paint3_linear_2_25" x1="7.824" y1="52.789" x2="11.876" y2="61.504" gradientUnits="userSpaceOnUse"><stop stop-color="#AFF3E9"/><stop offset="1" stop-color="#FFF9ED"/></linearGradient><linearGradient id="paint4_linear_2_25" x1="12.155" y1="59.822" x2="14.116" y2="63.598" gradientUnits="userSpaceOnUse"><stop stop-color="#AFF3E9"/><stop offset="1" stop-color="#FFF9ED"/></linearGradient><linearGradient id="paint5_linear_2_25" x1="26.537" y1="46.478" x2="28.849" y2="50.34" gradientUnits="userSpaceOnUse"><stop stop-color="#AFF3E9"/><stop offset="1" stop-color="#FFF9ED"/></linearGradient><linearGradient id="paint6_linear_2_25" x1="16.369" y1="47.229" x2="19.154" y2="52.284" gradientUnits="userSpaceOnUse"><stop stop-color="#AFF3E9"/><stop offset="1" stop-color="#FFF9ED"/></linearGradient><clipPath id="clip0_2_25"><rect width="84" height="84" rx="42" fill="#fff"/></clipPath></defs></svg>