<svg width="84" height="84" fill="none" xmlns="http://www.w3.org/2000/svg"><g clip-path="url('#clip0_2_177')" id="Weather / Morning / Windy"><rect width="84" height="84" rx="42" fill="url('#paint0_linear_2_177')"/><g id="Group"><path id="Rectangle" fill="#34516D" d="M46 48h11v4H46z"/><path id="Path" fill-rule="evenodd" clip-rule="evenodd" d="M59 48.5a7.503 7.503 0 0 0-5-7.073A7.5 7.5 0 0 0 44 48.5" fill="#D1E6FF"/><path id="Path_2" fill-rule="evenodd" clip-rule="evenodd" d="M59 48.5a7.5 7.5 0 0 0-7.5-7.5v7.5" fill="#BED4EE"/><path id="Path 58" fill-rule="evenodd" clip-rule="evenodd" d="M42 104.656h19.594l-3.32-53.616h-13.75L42 104.656Z" fill="#D1E6FF"/><path id="Shape" d="m58.273 51.04 3.321 53.616L57 85l-2.394-33.96h3.667Z" fill="#BED4EE"/><g id="Group 4"><g id="Group 3"><path id="Stroke 130" opacity=".598" d="M35.906 54.1c-.854-4.718.62-9.386 3.662-12.756" stroke="#fff" stroke-width="1.882" stroke-linecap="round" stroke-linejoin="round"/><path id="Stroke 131" opacity=".598" d="M65.288 46.872c-1.43-4.576-4.903-8.027-9.16-9.602" stroke="#fff" stroke-width="1.882" stroke-linecap="round" stroke-linejoin="round"/><path id="Stroke 134" fill-rule="evenodd" clip-rule="evenodd" d="m47.163 48.422-3.147-12.795a2.833 2.833 0 0 1 2.085-3.42 2.833 2.833 0 0 1 3.434 2.063l3.148 12.794" fill="#EDF1F6"/><path id="Stroke 138" d="M49.535 34.27a2.833 2.833 0 0 0-3.434-2.063L50 48l2.683-.935-3.148-12.795Z" fill="#E3EAF1"/><path id="Stroke 135" fill-rule="evenodd" clip-rule="evenodd" d="m50.049 56.046-9.58 9.141a2.852 2.852 0 0 1-4.017-.076 2.813 2.813 0 0 1 .09-3.994l9.579-9.14" fill="#F0F3F6"/><path id="Stroke 139" d="M36.541 61.117a2.813 2.813 0 0 0-.089 3.994L48.5 54l-2.38-2.024-9.579 9.142Z" fill="#E3EAF1"/><path id="Stroke 136" fill-rule="evenodd" clip-rule="evenodd" d="m53.663 55.157 12.727 3.654a2.852 2.852 0 0 0 3.523-1.93 2.813 2.813 0 0 0-1.931-3.498L55.255 49.73" fill="#F6FAFF"/><path id="Path_3" d="m66.39 58.811-12.727-3.654.86-2.413 15.39 4.136a2.852 2.852 0 0 1-3.523 1.931Z" fill="#E3EAF1"/><path id="Stroke 137" fill-rule="evenodd" clip-rule="evenodd" d="M49.698 46.83c2.54-.625 5.103.915 5.724 3.438.62 2.523-.936 5.076-3.476 5.701s-5.103-.915-5.724-3.438c-.62-2.524.936-5.076 3.476-5.701Z" fill="#4E75B2"/></g></g></g></g><defs><linearGradient id="paint0_linear_2_177" x1="0" y1="84" x2="84" y2="84" gradientUnits="userSpaceOnUse"><stop stop-color="#81B6F1"/><stop offset="1" stop-color="#9CC1FF"/></linearGradient><clipPath id="clip0_2_177"><rect width="84" height="84" rx="42" fill="#fff"/></clipPath></defs></svg>