<svg width="84" height="84" fill="none" xmlns="http://www.w3.org/2000/svg"><g clip-path="url('#clip0_407_1143')"><rect width="84" height="84" rx="42" fill="url('#paint0_linear_407_1143')"/><path fill-rule="evenodd" clip-rule="evenodd" d="M65.354 71.799h-8.287v-8.78h-4.434v-7.375h-1.225V43.53a.53.53 0 1 0-1.06 0v12.114h-1.23v7.375h-4.433v8.78H36.46v23.063h-1.71H67h-1.646V71.799Z" fill="#111125"/><path fill-rule="evenodd" clip-rule="evenodd" d="M41 81.888h2V75h-2v6.888ZM50 81.888h2V75h-2v6.888ZM59 81.888h2V75h-2v6.888Z" fill="#AD9657"/><path opacity=".4" fill-rule="evenodd" clip-rule="evenodd" d="M17.301 19.301a.3.3 0 0 0 0 .424l2.121 2.122a.3.3 0 0 0 .425-.425l-2.122-2.12a.3.3 0 0 0-.424 0Zm28.82 26.82a.3.3 0 0 0 0 .424l2.121 2.121a.3.3 0 0 0 .425-.424l-2.122-2.121a.3.3 0 0 0-.424 0ZM38.715 15.715a.3.3 0 0 0 0 .425l2.122 2.12a.3.3 0 1 0 .424-.423l-2.121-2.122a.3.3 0 0 0-.425 0ZM50.03 27.03a.3.3 0 0 0 0 .424l2.121 2.122a.3.3 0 1 0 .425-.425l-2.122-2.121a.3.3 0 0 0-.424 0Zm3.314 15.738a.3.3 0 0 1 .424-.424l2.121 2.121a.3.3 0 1 1-.424.424l-2.121-2.121Zm19.313 6.89a.3.3 0 0 0 0 .424l2.122 2.121a.3.3 0 1 0 .424-.424l-2.121-2.122a.3.3 0 0 0-.425 0ZM47.402 1.826a.3.3 0 1 1 .424-.424l2.121 2.12a.3.3 0 0 1-.424.425l-2.121-2.121ZM58.715 13.14a.3.3 0 1 1 .425-.425l2.12 2.122a.3.3 0 0 1-.423.424l-2.122-2.121ZM70.03 24.029a.3.3 0 0 0 0 .424l2.121 2.122a.3.3 0 0 0 .425-.425l-2.122-2.121a.3.3 0 0 0-.424 0ZM15.715 36.14a.3.3 0 1 1 .425-.425l2.12 2.122a.3.3 0 0 1-.423.424l-2.122-2.121ZM35.03 47.453a.3.3 0 1 1 .424-.424l2.122 2.121a.3.3 0 0 1-.425.425l-2.121-2.122Zm3.314 10.89a.3.3 0 0 0 0 .424l2.121 2.121a.3.3 0 1 0 .424-.424l-2.121-2.121a.3.3 0 0 0-.424 0ZM5.109 43.109a.3.3 0 0 0 0 .424l3.535 3.535a.3.3 0 0 0 .424-.424L5.533 43.11a.3.3 0 0 0-.424 0Zm17.02 8.02a.3.3 0 0 0 0 .425l3.536 3.535a.3.3 0 1 0 .424-.424l-3.535-3.535a.3.3 0 0 0-.424 0Z" fill="#fff"/><path opacity=".4" d="M4.402 52.826a.3.3 0 0 1 .424-.424l2.828 2.828a.3.3 0 0 1-.424.424l-2.828-2.828Z" fill="#fff"/><path opacity=".4" fill-rule="evenodd" clip-rule="evenodd" d="M54.523 3.523a.3.3 0 0 0 0 .424l.707.707a.3.3 0 0 0 .424-.424l-.707-.707a.3.3 0 0 0-.424 0Zm13.435 13.435a.3.3 0 0 0 0 .424l.707.707a.3.3 0 1 0 .424-.424l-.707-.707a.3.3 0 0 0-.424 0ZM27.18 9.604a.3.3 0 1 1 .424-.424l7.071 7.07a.3.3 0 0 1-.424.425L27.18 9.604ZM1.155 33.812a.3.3 0 1 1 .424-.424l7.071 7.07a.3.3 0 0 1-.424.425l-7.071-7.07Zm62.209 17.552a.3.3 0 0 0 0 .424l5.229 5.095a.3.3 0 1 0 .424-.424l-5.23-5.096a.3.3 0 0 0-.423 0Z" fill="#fff"/><path opacity=".6" d="M4.18 13.604a.3.3 0 1 1 .424-.424l7.071 7.07a.3.3 0 0 1-.424.425L4.18 13.604Z" fill="#fff"/><path opacity=".121" d="M43.155 28.812a.3.3 0 1 1 .424-.424l2.121 2.121a.3.3 0 0 1-.424.424l-2.121-2.12Z" fill="#fff"/><path opacity=".5" d="M37.029 4.453a.3.3 0 1 1 .424-.424l2.122 2.121a.3.3 0 0 1-.425.425L37.03 4.453ZM56.422 22.847a.3.3 0 1 1 .425-.425l5.657 5.657a.3.3 0 1 1-.425.424l-5.657-5.656Z" fill="#fff"/></g><defs><linearGradient id="paint0_linear_407_1143" x1="126" y1="42" x2="42" y2="-42" gradientUnits="userSpaceOnUse"><stop stop-color="#253363"/><stop offset="1" stop-color="#5A79E8"/></linearGradient><clipPath id="clip0_407_1143"><rect width="84" height="84" rx="42" fill="#fff"/></clipPath></defs></svg>