<svg width="84" height="84" fill="none" xmlns="http://www.w3.org/2000/svg"><g clip-path="url('#clip0_2_487')" id="Weather / Night / Cloudy"><g id="Group"><circle id="Oval" cx="42" cy="42" r="42" fill="url('#paint0_linear_2_487')"/><path id="Oval 4" opacity=".9" fill-rule="evenodd" clip-rule="evenodd" d="M22.127 23.87h8.771c2.703 0 4.893-2.203 4.893-4.92 0-2.716-2.19-4.918-4.893-4.918-.815 0-1.584.2-2.26.555-.942-2.745-3.534-4.718-6.584-4.718-3.846 0-6.963 3.134-6.963 7 0 .08 0 .159.004.237a3.597 3.597 0 0 0-1.886 3.169c0 1.985 1.6 3.594 3.575 3.594h5.343-.073.073Z" fill="#E9E9F1"/><g id="Group_2" fill-rule="evenodd" clip-rule="evenodd"><g id="Fill 6"><path d="M42.452 82.434a7.586 7.586 0 0 1-7.59 7.583 7.586 7.586 0 0 1-7.588-7.583 7.586 7.586 0 0 1 7.589-7.582 7.586 7.586 0 0 1 7.59 7.582Z" fill="#9AD190"/><path d="M42.452 82.434a7.586 7.586 0 0 1-7.59 7.583 7.586 7.586 0 0 1-7.588-7.583 7.586 7.586 0 0 1 7.589-7.582 7.586 7.586 0 0 1 7.59 7.582Z" fill="#8DBBA5"/></g><g id="Fill 8"><path d="M46.916 73.811c0 4.188-3.397 7.583-7.589 7.583-4.191 0-7.59-3.395-7.59-7.583a7.586 7.586 0 0 1 7.59-7.583 7.586 7.586 0 0 1 7.59 7.583Z" fill="#9AD190"/><path d="M46.916 73.811c0 4.188-3.397 7.583-7.589 7.583-4.191 0-7.59-3.395-7.59-7.583a7.586 7.586 0 0 1 7.59-7.583 7.586 7.586 0 0 1 7.59 7.583Z" fill="#8DBBA5"/></g><path id="Fill 9" d="M62.69 97.135h46.875v-47.79H62.69v47.79Z" fill="#D4A3C6"/><path id="Fill 10" d="M103.353 38.276H48.107v16.69h65.625l-10.379-16.69Z" fill="#98567D"/><path id="Fill 11" d="M63.118 97.302H32.761v-47.79l15.476-10.938 14.881 10.938v47.79Z" fill="#DCAFD2"/><path id="Fill 12" d="m30.581 54.489-1.667-2.095L48.29 37l17.783 14.666-1.705 2.064-16.11-13.286L30.582 54.49Z" fill="#76486D"/><path id="Fill 13" d="M108.252 79.108h-42.87a.446.446 0 0 1-.367-.7l5.774-8.363a.446.446 0 0 1 .368-.193h32.017c.156 0 .301.082.382.215l5.077 8.363a.446.446 0 0 1-.381.678Z" fill="#98567D"/><path id="Fill 14" d="M38.063 97.377h19.866V77.974H38.062v19.403Z" fill="#8C736A"/><path id="Fill 15" d="M58.598 97.377h-1.34V78.643H38.733v18.734h-1.34V77.974c0-.37.3-.67.67-.67H57.93c.37 0 .67.3.67.67v19.403Z" fill="#DDDEFE"/><path id="Fill 16" d="M71.228 67.12h6.944v-8.38h-6.944v8.38Z" fill="#8DA6DC"/><path id="Fill 17" d="M71.898 66.451h5.605V59.41h-5.605v7.041Zm6.274 1.339h-6.944a.67.67 0 0 1-.67-.67v-8.38c0-.369.3-.669.67-.669h6.944c.37 0 .67.3.67.67v8.38c0 .369-.3.669-.67.669Z" fill="#DDDEFE"/><path id="Fill 18" d="M70.838 97.451h7.477V81.914h-7.477V97.45Z" fill="#9E764F"/><path id="Fill 19" d="M78.985 97.451h-1.34V82.583h-6.138v14.868h-1.34V81.914c0-.369.3-.669.67-.669h7.478c.37 0 .67.3.67.67V97.45Z" fill="#FCFCFC"/><path id="Fill 20" d="M53.67 57.372a6.076 6.076 0 0 0-12.13 0h-.018V68.57h12.166V57.372h-.018Z" fill="#8DA6DC"/><path id="Fill 21" d="M42.192 67.901h10.826V57.52l-.016-.111a5.406 5.406 0 0 0-10.794 0l-.016.114V67.9Zm11.495 1.338H41.523a.67.67 0 0 1-.67-.669V57.372c0-.067.01-.132.029-.193a6.745 6.745 0 0 1 13.448 0 .674.674 0 0 1 .028.193V68.57c0 .37-.3.67-.67.67Z" fill="#DDDEFE"/><path id="Fill 22" d="M46.935 68.31h1.34V51.583h-1.34V68.31Z" fill="#DDDEFE"/><path id="Fill 23" d="M41.634 58.125h11.979v-1.338h-11.98v1.338Z" fill="#DDDEFE"/><path id="Fill 24" d="M72.214 90.24h4.725v-6.468h-4.725v6.468Z" fill="#9CC1DC"/><g id="Fill 25"><path d="M39.625 97.34h1.438V78.645h-1.438V97.34Z" fill="#B99068"/><path d="M39.625 97.34h1.438V78.645h-1.438V97.34Z" fill="#A78885"/></g><g id="Fill 26"><path d="M42.182 97.34h1.438V78.645h-1.438V97.34Z" fill="#B99068"/><path d="M42.182 97.34h1.438V78.645h-1.438V97.34Z" fill="#A78885"/></g><g id="Fill 27"><path d="M44.738 97.34h1.438V78.645h-1.438V97.34Z" fill="#B99068"/><path d="M44.738 97.34h1.438V78.645h-1.438V97.34Z" fill="#A78885"/></g><g id="Fill 28"><path d="M47.295 97.34h1.438V78.645h-1.438V97.34Z" fill="#B99068"/><path d="M47.295 97.34h1.438V78.645h-1.438V97.34Z" fill="#A78885"/></g><g id="Fill 29"><path d="M49.851 97.34h1.439V78.645H49.85V97.34Z" fill="#B99068"/><path d="M49.851 97.34h1.439V78.645H49.85V97.34Z" fill="#A78885"/></g><g id="Fill 30"><path d="M52.408 97.34h1.439V78.645h-1.439V97.34Z" fill="#B99068"/><path d="M52.408 97.34h1.439V78.645h-1.439V97.34Z" fill="#A78885"/></g><g id="Fill 31"><path d="M54.965 97.34h1.439V78.645h-1.439V97.34Z" fill="#B99068"/><path d="M54.965 97.34h1.439V78.645h-1.439V97.34Z" fill="#A78885"/></g><path id="Fill 36" d="M65.148 80.371h43.345v-1.338H65.148v1.338Z" fill="#32424F"/><path id="Fill 37" d="M63.118 56.211h50.603v-1.338H63.118v1.338Z" fill="#6C3D62"/><path id="Fill 41" d="M71.284 62.697h6.957v-1.338h-6.957v1.338Z" fill="#DDDEFE"/><path id="Fill 42" d="M103.762 77.528H78.464a.67.67 0 1 1 0-1.338h25.298a.669.669 0 1 1 0 1.338Z" fill="#32424F"/><path id="Fill 43" d="M89.922 74.852H70.354a.67.67 0 0 1 0-1.339h19.568a.67.67 0 1 1 0 1.339Z" fill="#32424F"/><path id="Fill 44" d="M93.196 72.324H77.348a.67.67 0 1 1 0-1.338h15.848a.67.67 0 1 1 0 1.338Z" fill="#32424F"/><path id="Fill 47" d="M75.34 77.38h-6.623a.67.67 0 0 1 0-1.339h6.622a.67.67 0 1 1 0 1.338Z" fill="#32424F"/><path id="Fill 48" d="M92.452 52.699H69.908a.67.67 0 1 1 0-1.339h22.544a.67.67 0 1 1 0 1.339Z" fill="#6C3D62"/><path id="Fill 50" d="M96.395 49.502h-29.39a.67.67 0 1 1 0-1.338h29.39a.67.67 0 1 1 0 1.338Z" fill="#6C3D62"/><path id="Fill 52" d="M105.92 46.156H67.973a.67.67 0 1 1 0-1.338h37.947a.67.67 0 0 1 0 1.338Z" fill="#6C3D62"/><path id="Fill 53" d="M82.036 43.332H58.449a.67.67 0 1 1 0-1.339h23.587a.67.67 0 0 1 0 1.339Z" fill="#6C3D62"/><path id="Fill 56" d="M101.381 40.73H55.696a.67.67 0 1 1 0-1.339h45.685a.669.669 0 1 1 0 1.338Z" fill="#6C3D62"/></g></g><path id="Oval 4_2" opacity=".9" fill-rule="evenodd" clip-rule="evenodd" d="M66.043 32.87h-9.398c-2.896 0-5.243-2.36-5.243-5.27 0-2.912 2.347-5.271 5.243-5.271.873 0 1.697.215 2.421.595 1.01-2.942 3.787-5.055 7.055-5.055 4.12 0 7.46 3.358 7.46 7.5 0 .085 0 .17-.004.254a3.854 3.854 0 0 1 2.02 3.395c0 2.127-1.714 3.851-3.83 3.851h-5.724.078-.078Z" fill="#E9E9F1"/></g><defs><linearGradient id="paint0_linear_2_487" x1="-18.803" y1="37.903" x2="45.001" y2="115.902" gradientUnits="userSpaceOnUse"><stop stop-color="#445FE2"/><stop offset="1" stop-color="#5385AC"/></linearGradient><clipPath id="clip0_2_487"><rect width="84" height="84" rx="42" fill="#fff"/></clipPath></defs></svg>