<svg width="84" height="84" fill="none" xmlns="http://www.w3.org/2000/svg"><g clip-path="url('#clip0_235_1244')"><rect width="84" height="84" rx="42" fill="url('#paint0_linear_235_1244')"/><path d="M42 84c23.196 0 42-18.804 42-42H0c0 23.196 18.804 42 42 42Z" fill="url('#paint1_linear_235_1244')"/><path opacity=".4" d="M62.5 44c5.405-.006 41.5-2 41.5-2H20s25.884 2.019 42.5 2Z" fill="url('#paint2_linear_235_1244')"/><path opacity=".4" d="M65 61.6c10.404.798 28.737-2.074 33.092-5.76 0 0-22.604 3.855-30.571 3.682-24.021-.522-52.5-10.5-52.5-10.5-2 0 23.183 10.522 49.979 12.578Z" fill="url('#paint3_linear_235_1244')"/><path opacity=".4" d="M52.399 46.909c-19.22 2.647-40.223-1.178-37.482-1.969 0 0 21.397 1.773 37.482 1.969Z" fill="url('#paint4_linear_235_1244')"/><path opacity=".4" d="M73.51 50.194C78 53.5 38.5 52 45 51.5c6.5-.5 21.5.658 28.51-1.306Z" fill="url('#paint5_linear_235_1244')"/><path d="M84.138 74.25c-6.588 14.578-25.45 25.982-42.486 25.982-11.964 0-26.074-5.614-35.723-14.01-2.124-1.85-4.5-5.484-6.166-8.806-1.604-3.196-1.36-11.76-.183-12.757 4.356-3.685 12.986-4.347 23.39-3.548 26.796 2.055 38.51 12.93 61.168 12.93v.21Z" fill="url('#paint6_linear_235_1244')"/><path opacity=".45" d="M82.716 77.026c.522-.91.998-1.836 1.422-2.775v-.21c-11.611 0-20.349-2.856-29.715-5.918-8.91-2.912-18.389-6.01-31.453-7.012-10.404-.799-19.034-.137-23.39 3.548v2c4.356-3.685 12.986-4.347 23.39-3.548 13.064 1.002 22.543 5.1 31.453 8.012 8.98 2.935 17.382 5.681 28.293 5.903Z" fill="url('#paint7_linear_235_1244')"/><path d="M75.355 73.55c-3.788 18.924-22.865 36.448-42.891 41.072-14.065 3.247-32.174-3.524-45.796-10.776-2.999-1.597-6.777-5.224-9.637-8.677-2.753-3.322-2.802-10.2-1.688-11.691 4.12-5.514 12.095-11.89 24.543-13.774C31.942 64.848 39 80.5 75.298 73.302l.057.248Z" fill="url('#paint8_linear_235_1244')"/><path d="m3.5 66 8.5-8H.5l3 8Z" fill="#150529" fill-opacity=".5"/><path d="M99.5 33c-2.872 0-4.5-1.5-8-1.5-1.787 0 11.5 4.342 8 6-3.248 1.174-19 .158-25.5 0S62 42 62 42l29 .5-1 1 23.5 1V28s-4-2.792-6.5-.5c-3.273 3-4.628 5.5-7.5 5.5ZM-14 33c2.872 0 4.5-1.5 8-1.5 1.787 0 5 4.5 8.5 6.158 3.248 1.173 6.968-.158 9-.158 2 0 12 4.5 12 4.5l-29 .5 1 1-23.5 1V28s4-2.792 6.5-.5c3.273 3 4.628 5.5 7.5 5.5Z" fill="#1F1332"/><path d="M3.5 53.7v-3.2L0 53v6h6l.5-3.5-3-1.8Z" fill="url('#paint9_linear_235_1244')"/><path d="M3.5 53.78V50.5l7 2.5 1.5 5-6 1 .5-3.5-3-1.72Z" fill="url('#paint10_linear_235_1244')"/><circle cx="50" cy="21" r="7" fill="#FEFFCA"/><circle cx="71.5" cy="17.5" r=".5" fill="#FEFFCF"/><circle cx="32.5" cy="5.5" r=".5" fill="#FEFFCF"/><circle cx="24.5" cy="20.5" r=".5" fill="#FEFFCF"/><circle cx="15.5" cy="13.5" r=".5" fill="#FEFFCF"/><circle cx="60.5" cy="10.5" r=".5" fill="#FEFFCF"/></g><defs><linearGradient id="paint0_linear_235_1244" x1="5" y1="-10" x2="7" y2="96" gradientUnits="userSpaceOnUse"><stop offset=".211" stop-color="#1B0E35"/><stop offset=".378" stop-color="#311D82"/></linearGradient><linearGradient id="paint1_linear_235_1244" x1="42" y1="42" x2="40.5" y2="106.5" gradientUnits="userSpaceOnUse"><stop stop-color="#470C92"/><stop offset=".398" stop-color="#3A16A3"/><stop offset=".896" stop-color="#140835"/></linearGradient><linearGradient id="paint2_linear_235_1244" x1="23" y1="44.5" x2="43.663" y2="64.076" gradientUnits="userSpaceOnUse"><stop stop-color="#FEFFCA"/><stop offset=".528" stop-color="#FEFFCA" stop-opacity=".17"/></linearGradient><linearGradient id="paint3_linear_235_1244" x1="55" y1="61" x2="12.721" y2="45.774" gradientUnits="userSpaceOnUse"><stop stop-color="#ED82FF"/><stop offset="1" stop-color="#FEFFCA" stop-opacity=".46"/></linearGradient><linearGradient id="paint4_linear_235_1244" x1="25" y1="48.5" x2="43.5" y2="41.5" gradientUnits="userSpaceOnUse"><stop stop-color="#ED82FF"/><stop offset="1" stop-color="#FEFFCA" stop-opacity=".46"/></linearGradient><linearGradient id="paint5_linear_235_1244" x1="52.672" y1="54.135" x2="66.928" y2="47.788" gradientUnits="userSpaceOnUse"><stop stop-color="#ED82FF"/><stop offset="1" stop-color="#FEFFCA" stop-opacity=".46"/></linearGradient><linearGradient id="paint6_linear_235_1244" x1="78" y1="84.5" x2="-1.569" y2="62.767" gradientUnits="userSpaceOnUse"><stop offset=".442" stop-color="#120534"/><stop offset=".916" stop-color="#391468"/></linearGradient><linearGradient id="paint7_linear_235_1244" x1="70" y1="77" x2="13.5" y2="61" gradientUnits="userSpaceOnUse"><stop offset=".32" stop-color="#fff" stop-opacity=".1"/><stop offset=".97" stop-color="#FEFFCA" stop-opacity=".5"/></linearGradient><linearGradient id="paint8_linear_235_1244" x1="69.512" y1="84.704" x2="-28.058" y2="83.086" gradientUnits="userSpaceOnUse"><stop stop-color="#0A0221"/><stop offset=".66" stop-color="#2A1563"/></linearGradient><linearGradient id="paint9_linear_235_1244" x1="2.25" y1="50.5" x2="2" y2="64" gradientUnits="userSpaceOnUse"><stop stop-color="#09000E"/><stop offset="1" stop-color="#380156"/></linearGradient><linearGradient id="paint10_linear_235_1244" x1="2" y1="57" x2="15" y2="48" gradientUnits="userSpaceOnUse"><stop offset=".264" stop-color="#361E7C"/><stop offset=".896" stop-color="#FEFFCA" stop-opacity=".5"/></linearGradient><clipPath id="clip0_235_1244"><rect width="84" height="84" rx="42" fill="#fff"/></clipPath></defs></svg>