<svg width="84" height="84" fill="none" xmlns="http://www.w3.org/2000/svg"><g clip-path="url('#clip0_2_59')" id="Weather / Night / Clear / 1"><rect width="84" height="84" rx="42" fill="url('#paint0_linear_2_59')"/><path id="Path 51" opacity=".4" fill-rule="evenodd" clip-rule="evenodd" d="M88.435 74.93s-.543-17.113-12.857-19.789c-10.766-1.59-19.067 10.76-28.694 10.76-11.22 0-16.508-7.168-27.4-7.168-7.946 0-15.704 6.232-26.524 4.072-3.599-.719-8.96-1.955-8.96-1.955l.178 23.577 104.257 1.591V74.929Z" fill="url('#paint1_linear_2_59')"/><path id="Path 51_2" opacity=".6" fill-rule="evenodd" clip-rule="evenodd" d="M-19 87.525s.723-22.775 17.112-26.337c14.33-2.117 25.377 14.32 38.19 14.32 14.934 0 21.972-9.54 36.47-9.54 10.576 0 20.902 8.295 35.302 5.42 4.79-.957 11.926-2.602 11.926-2.602l-.237 31.381L-19 102.284V87.525Z" fill="url('#paint2_linear_2_59')"/><path id="Oval 94" d="M32 27.139c-.48.097-.978.148-1.488.148-4.08 0-7.388-3.266-7.388-7.293 0-1.475.443-2.847 1.205-3.994-3.07.819-5.329 3.588-5.329 6.877C19 26.811 22.231 30 26.217 30A7.238 7.238 0 0 0 32 27.139Z" fill="#FFE59B"/><circle id="Oval" cx="62.5" cy="32.5" r=".5" fill="#FFF357"/><circle id="Oval_2" cx="34.5" cy="8.5" r=".5" fill="#FFF357"/><circle id="Oval_3" cx="8.5" cy="26.5" r=".5" fill="#FFF357"/><circle id="Oval_4" cx="55.5" cy="13.5" r=".5" fill="#FFF357"/><path id="Line" d="M40.28 12.331a.5.5 0 1 1 .497-.867l16.943 9.705a.5.5 0 1 1-.497.868L40.28 12.33Z" fill="url('#paint3_linear_2_59')"/></g><defs><linearGradient id="paint0_linear_2_59" x1="-11.44" y1="0" x2="-11.44" y2="106.88" gradientUnits="userSpaceOnUse"><stop stop-color="#3A36FF"/><stop offset=".625" stop-color="#5398FF"/><stop offset="1" stop-color="#41B7FA"/></linearGradient><linearGradient id="paint1_linear_2_59" x1="102.658" y1="55" x2="102.658" y2="94.467" gradientUnits="userSpaceOnUse"><stop stop-color="#3A36FF"/><stop offset=".625" stop-color="#5398FF"/><stop offset="1" stop-color="#41B7FA"/></linearGradient><linearGradient id="paint2_linear_2_59" x1="-37.93" y1="61" x2="-37.93" y2="113.529" gradientUnits="userSpaceOnUse"><stop stop-color="#3A36FF"/><stop offset=".625" stop-color="#5398FF"/><stop offset="1" stop-color="#41B7FA"/></linearGradient><linearGradient id="paint3_linear_2_59" x1="33.402" y1="19.404" x2="49.024" y2="32.331" gradientUnits="userSpaceOnUse"><stop stop-color="#FFFA90" stop-opacity=".01"/><stop offset="1" stop-color="#FBF5A3"/></linearGradient><clipPath id="clip0_2_59"><rect width="84" height="84" rx="42" fill="#fff"/></clipPath></defs></svg>