<svg width="84" height="84" fill="none" xmlns="http://www.w3.org/2000/svg"><g clip-path="url('#clip0_416_41')"><rect width="84" height="84" rx="42" fill="url('#paint0_linear_416_41')"/><path fill-rule="evenodd" clip-rule="evenodd" d="M65.354 71.799h-8.287v-8.78h-4.434v-7.375h-1.225V43.53a.53.53 0 0 0-1.06 0v12.114h-1.23v7.375h-4.433v8.78H36.46v23.063h-1.71H67h-1.646V71.799Z" fill="#111125"/><path fill-rule="evenodd" clip-rule="evenodd" d="M41 81.888h2V75h-2v6.888ZM50 81.888h2V75h-2v6.888ZM59 81.888h2V75h-2v6.888Z" fill="#AD9657"/><path fill-rule="evenodd" clip-rule="evenodd" d="M32.966 25.73c1.22 2.676 2.137 4.377 2.77 5.125.672.796 1.746.854 3.167.242.347 1.164.48 2.039.403 2.61-.091.677-.264 1.573-.52 2.688l-.105.457.463-.058c.826-.102 1.29.022 1.448.31.2.364.307 1.453.29 3.194l-.005.403.394-.078c1.221-.241 2.142-.598 2.764-1.08a5.63 5.63 0 0 0 1.112-1.186c.101.908.34 1.621.725 2.14.558.754 1.275.992 2.069.668l.185-.076.017-.2c.067-.803.24-1.226.432-1.298.21-.079.29-.213.41-.516l.037-.096c.057-.143.096-.215.121-.236-.005.004-.003.008.071.051-.02-.011.017.045.075.135.029.043.062.094.096.149.146.233.348.575.606 1.024l.097.17.195-.006c1.054-.03 1.884-.267 2.486-.72.59-.444 1.175-1.261 1.771-2.454.233-.457.438-.719.572-.778.171-.076.263.009.465.458l.025.057.073.162c.172.378.297.559.55.632.62.181 1.416.094 2.395-.246.288 1.034.585 1.735.908 2.119.382.452.992.703 1.813.77l.123-.014 1.632-.505a7.045 7.045 0 0 0 .066 1.707l.026.166.148.076c.364.186.45.451.397 1.019a9.485 9.485 0 0 1-.026.236c-.097.827-.064 1.159.345 1.467.6.452 1.408.452 2.39.04l.08-.047c.58-.47.98-.642 1.147-.58.18.068.416.491.63 1.27l.139.51.393-.351c.618-.554 1.156-.44 1.787.428.768 1.056 2.117 2.157 4.048 3.312 0 0-2.813-2.726-3.52-3.698-.725-.997-1.546-1.29-2.354-.823-.239-.702-.522-1.123-.895-1.262-.45-.169-1.017.069-1.748.654-.768.313-1.326.308-1.705.023-.139-.105-.156-.285-.088-.866.014-.117.02-.18.027-.252.069-.74-.068-1.241-.599-1.579a6.134 6.134 0 0 1 .022-1.858l.09-.526-2.564.793c-.63-.06-1.06-.242-1.306-.534-.277-.329-.573-1.072-.867-2.21l-.092-.356-.342.133c-1.016.396-1.792.508-2.318.354.004.001-.003-.01-.017-.035-.023-.04-.066-.12-.121-.24l-.068-.152-.029-.065c-.335-.744-.687-1.07-1.325-.787-.31.138-.593.497-.89 1.082-.556 1.112-1.087 1.854-1.58 2.225-.447.337-1.085.533-1.92.581-.527-.917-.762-1.284-.91-1.372-.295-.176-.581-.183-.808-.002-.146.116-.224.257-.324.51l-.038.095a3.575 3.575 0 0 1-.024.06c-.028.069-.04.096-.007.084-.475.178-.73.733-.833 1.64-.423.108-.777-.052-1.117-.511-.424-.573-.647-1.506-.65-2.799l-.005-1.263-.608 1.106c-.46.834-.96 1.458-1.497 1.874-.467.361-1.167.654-2.1.871 0-1.624-.116-2.642-.372-3.108-.272-.495-.83-.709-1.643-.681.207-.934.35-1.704.432-2.31.1-.748-.082-1.826-.538-3.253a.327.327 0 0 0-.453-.195c-1.355.66-2.24.66-2.728.083-.576-.682-1.464-2.327-2.646-4.912-.058-3.021-.263-4.618-.722-5.031-.347-.312-.915-.641-1.71-.996.307-1.346.358-2.338.126-2.99a1.508 1.508 0 0 0-.313-.577c-.43-.478-1.175-.782-2.183-.981a14.162 14.162 0 0 0-1.273-.186l-.314-.03a36.313 36.313 0 0 1-.547-.056 1.576 1.576 0 0 1-.07-.01c-.92-.16-1.547-.206-3.026-.263-1.175-.046-1.62-.106-1.85-.272-.22-.159-.338-.298-.364-.49-.006-.215.085-.495.258-.92.218-.537.3-.808.304-1.155 0-.082-.005-.162-.016-.242a1.465 1.465 0 0 0-.061-.289c-.375-1.17-.849-1.194-.761-.41.015.177.06.4.144.663a.813.813 0 0 1 .032.144.938.938 0 0 1 .002.073c-.003.233-.069.45-.255.906-.222.547-.34.955-.31 1.298.011.4.209.708.652 1.029.387.28.86.343 2.21.396 1.454.057 2.062.101 2.947.255l.098.015c.074.01.36.037.59.06.129.013.24.023.287.029.454.048.846.103 1.218.177.883.176 1.52.436 1.83.782.33.369-.085 2.932-.156 3.354l-.013.053.004.002v.004c.265 1.086.355 1.752.158 1.988.027-.033-.027-.041-.19-.066l-.144-.023c-.385-.062-.633-.078-.915-.026l-.017.003c-.31.06-.692.311-1.188.754l-.079.07-.023.103c-.187.817-.187 1.364.06 1.684.177.23.489.46.941.706-.179 1.66-.17 2.888.033 3.698.208.83.695 1.528 1.449 2.086.008.572-.055.934-.155 1.058-.157.195-.471.486-.938.863l-.129.105.007.167c.05 1.204.456 1.903 1.246 1.941.025.078.044.206.067.445.094.967.147 1.306.363 1.907.135.378.598.71 1.4 1.067 1.27.443 1.36.83.423 1.565-.55.432-.588.893-.424 2.111.037.275.054.421.066.583.012.153.015.29.009.419-.016.342-.108 1.931-.108 1.931.14-.435.244-.747.322-.983.178-.534.228-.684.286-1.017.026-.148.004-.387-.022-.665-.057-.62-.132-1.435.274-1.858 1.324-1.384 1.127-2.103-.587-2.7-.617-.276-.97-.53-1.023-.677-.19-.532-.239-.836-.327-1.748-.074-.76-.174-1.038-.65-1.038-.368 0-.594-.336-.652-1.147.43-.354.73-.636.905-.855.242-.3.326-.84.297-1.66l-.006-.167-.136-.094c-.706-.485-1.142-1.083-1.322-1.8-.188-.751-.188-1.985.008-3.688l.026-.229-.204-.103c-.484-.246-.794-.463-.922-.628-.079-.102-.083-.457.038-1.028.373-.324.65-.5.798-.53l.011-.001c.19-.035.377-.024.693.028.63.103.735.106.939-.137.325-.388.373-1.062.186-2.046.579.275.994.526 1.24.748.25.224.455 1.847.506 4.623l.03.13Z" fill="url('#paint1_linear_416_41')"/></g><defs><linearGradient id="paint0_linear_416_41" x1="126" y1="42" x2="42" y2="-42" gradientUnits="userSpaceOnUse"><stop stop-color="#253363"/><stop offset="1" stop-color="#5A79E8"/></linearGradient><linearGradient id="paint1_linear_416_41" x1="-15.938" y1="18.188" x2="17.852" y2="75.024" gradientUnits="userSpaceOnUse"><stop stop-color="#4C63B2"/><stop offset=".722" stop-color="#fff" stop-opacity=".708"/><stop offset="1" stop-color="#fff" stop-opacity=".097"/></linearGradient><clipPath id="clip0_416_41"><rect width="84" height="84" rx="42" fill="#fff"/></clipPath></defs></svg>