<svg width="84" height="84" viewBox="0 0 84 84" fill="none" xmlns="http://www.w3.org/2000/svg">
<g clip-path="url('#clip0_418_303')">
<rect width="84" height="84" rx="42" fill="url('#paint0_linear_418_303')"></rect>
<path fill-rule="evenodd" clip-rule="evenodd" d="M39.3623 36L100.96 69.919V98.9701H-17L-16.4425 71.3204L39.3623 36Z" fill="#374C70"></path>
<path fill-rule="evenodd" clip-rule="evenodd" d="M38.5147 38.712L41.9801 39.5599L41.8891 37.3019L60.8087 47.7189L57.5546 47.8541L56.1868 48.8614L48.4928 44.5172L54.4067 50.1723L52.8629 51.3093L53.814 53.8949L46.9486 56.9961L39.9737 50.0853L44.4612 50.9033L41.6196 46.4993L48.4928 49.6949L42.6774 44.5172L45.2955 45.3998L38.5147 38.712Z" fill="url('#paint1_linear_418_303')"></path>
<path fill-rule="evenodd" clip-rule="evenodd" d="M61.5775 50.0485L63.8952 49.4474L84.4936 60.8345L81.4673 64.2157L78.2722 63.1336L80.2867 65.4507L75.3045 70.6455L68.0944 67.4851L72.2069 74.8868L59.2336 65.7034L58.8885 59.8672L55.6357 55.4273L58.672 56.2062L57.6339 51.986L62.2406 51.4971L61.5775 50.0485Z" fill="url('#paint2_linear_418_303')"></path>
<path fill-rule="evenodd" clip-rule="evenodd" d="M34.2625 56.6532L40.787 60.125V57.7868L54.2597 69.6324L52.1275 64.8933L59.9987 67.4851L67.7143 76.7714L61.7402 77.6204L49.6528 71.8715L55.753 78.4713L48.5515 79.4947L34.2625 66.6635V62.5843L38.5147 64.8933L34.2625 56.6532Z" fill="url('#paint3_linear_418_303')"></path>
<path fill-rule="evenodd" clip-rule="evenodd" d="M12.9406 57.7663L12.3448 54.6159L19.0718 56.9961L25.7988 62.4761L19.0825 61.7716L12.9406 57.7663Z" fill="url('#paint4_linear_418_303')"></path>
<path fill-rule="evenodd" clip-rule="evenodd" d="M16.1502 66.515L13.9852 62.9592L19.4325 64.2376L18.5564 65.6795L16.1502 66.515Z" fill="url('#paint5_linear_418_303')"></path>
<path fill-rule="evenodd" clip-rule="evenodd" d="M30.165 53.5558L28.2747 49.6649L33.4472 51.2784H30.165V53.5558Z" fill="url('#paint6_linear_418_303')"></path>
<path fill-rule="evenodd" clip-rule="evenodd" d="M18.7409 52.156H20.8748L19.8896 50.0853L22.7733 51.3468L25.7988 53.8215L21.9084 54.9718L18.7409 52.156Z" fill="url('#paint7_linear_418_303')"></path>
<path opacity="0.4" fill-rule="evenodd" clip-rule="evenodd" d="M53.0539 52.8209C52.9367 52.938 52.9367 53.128 53.0539 53.2451L55.1752 55.3665C55.2923 55.4836 55.4823 55.4836 55.5994 55.3665C55.7166 55.2493 55.7166 55.0593 55.5994 54.9422L53.4781 52.8209C53.361 52.7037 53.171 52.7037 53.0539 52.8209ZM74.2671 74.0341C74.1499 74.1512 74.1499 74.3412 74.2671 74.4583L76.3884 76.5797C76.5055 76.6968 76.6955 76.6968 76.8126 76.5797C76.9298 76.4625 76.9298 76.2726 76.8126 76.1554L74.6913 74.0341C74.5742 73.9169 74.3842 73.9169 74.2671 74.0341Z" fill="white"></path>
<path opacity="0.4" fill-rule="evenodd" clip-rule="evenodd" d="M23.0209 0.212129C22.9037 0.0949717 22.9037 -0.0949778 23.0209 -0.212135C23.138 -0.329292 23.328 -0.329292 23.4451 -0.212135L25.5664 1.90919C25.6836 2.02634 25.6836 2.21629 25.5664 2.33345C25.4493 2.45061 25.2593 2.45061 25.1422 2.33345L23.0209 0.212129ZM90.9031 68.0944C90.7859 67.9772 90.7859 67.7873 90.9031 67.6701C91.0203 67.553 91.2102 67.553 91.3274 67.6701L93.4487 69.7914C93.5658 69.9086 93.5658 70.0985 93.4487 70.2157C93.3315 70.3329 93.1416 70.3329 93.0244 70.2157L90.9031 68.0944ZM102.217 78.9838C102.1 79.101 102.1 79.2909 102.217 79.4081L104.338 81.5294C104.455 81.6466 104.645 81.6466 104.762 81.5294C104.88 81.4123 104.88 81.2223 104.762 81.1051L102.641 78.9838C102.524 78.8667 102.334 78.8667 102.217 78.9838Z" fill="white"></path>
<path opacity="0.4" fill-rule="evenodd" clip-rule="evenodd" d="M0.0208514 20.2121C-0.0963059 20.095 -0.0963059 19.905 0.0208514 19.7879C0.138009 19.6707 0.327958 19.6707 0.445115 19.7879L2.56644 21.9092C2.68359 22.0263 2.68359 22.2163 2.56644 22.3334C2.44928 22.4506 2.25933 22.4506 2.14217 22.3334L0.0208514 20.2121ZM67.9031 88.0944C67.7859 87.9772 67.7859 87.7873 67.9031 87.6701C68.0203 87.553 68.2102 87.553 68.3274 87.6701L70.4487 89.7914C70.5658 89.9086 70.5658 90.0985 70.4487 90.2157C70.3315 90.3329 70.1416 90.3329 70.0244 90.2157L67.9031 88.0944ZM79.2168 98.9838C79.0997 99.101 79.0997 99.2909 79.2168 99.4081L81.3381 101.529C81.4553 101.647 81.6452 101.647 81.7624 101.529C81.8796 101.412 81.8796 101.222 81.7624 101.105L79.6411 98.9838C79.5239 98.8667 79.334 98.8667 79.2168 98.9838Z" fill="white"></path>
</g>
<defs>
<linearGradient id="paint0_linear_418_303" x1="90.7616" y1="84" x2="90.7616" y2="-7.3985" gradientUnits="userSpaceOnUse">
<stop stop-color="#6E7C84"></stop>
<stop offset="1" stop-color="#668BA7"></stop>
</linearGradient>
<linearGradient id="paint1_linear_418_303" x1="31.0235" y1="43.6766" x2="43.3179" y2="61.3763" gradientUnits="userSpaceOnUse">
<stop stop-color="#5B8189"></stop>
<stop offset="1" stop-color="#A5BABD"></stop>
</linearGradient>
<linearGradient id="paint2_linear_418_303" x1="45.9389" y1="57.6818" x2="61.8082" y2="80.5759" gradientUnits="userSpaceOnUse">
<stop stop-color="#5B8189"></stop>
<stop offset="1" stop-color="#A5BABD"></stop>
</linearGradient>
<linearGradient id="paint3_linear_418_303" x1="23.0221" y1="64.0467" x2="35.7054" y2="87.6697" gradientUnits="userSpaceOnUse">
<stop stop-color="#5B8189"></stop>
<stop offset="1" stop-color="#A5BABD"></stop>
</linearGradient>
<linearGradient id="paint4_linear_418_303" x1="7.82406" y1="57.1602" x2="11.7966" y2="65.8078" gradientUnits="userSpaceOnUse">
<stop stop-color="#5B8189"></stop>
<stop offset="1" stop-color="#A5BABD"></stop>
</linearGradient>
<linearGradient id="paint5_linear_418_303" x1="12.1549" y1="64.1102" x2="14.0794" y2="67.8598" gradientUnits="userSpaceOnUse">
<stop stop-color="#5B8189"></stop>
<stop offset="1" stop-color="#A5BABD"></stop>
</linearGradient>
<linearGradient id="paint6_linear_418_303" x1="26.5366" y1="50.9243" x2="28.8082" y2="54.7647" gradientUnits="userSpaceOnUse">
<stop stop-color="#5B8189"></stop>
<stop offset="1" stop-color="#A5BABD"></stop>
</linearGradient>
<linearGradient id="paint7_linear_418_303" x1="16.3693" y1="51.667" x2="19.1033" y2="56.6891" gradientUnits="userSpaceOnUse">
<stop stop-color="#5B8189"></stop>
<stop offset="1" stop-color="#A5BABD"></stop>
</linearGradient>
<clipPath id="clip0_418_303">
<rect width="84" height="84" rx="42" fill="white"></rect>
</clipPath>
</defs>
</svg>
