<svg width="84" height="84" fill="none" xmlns="http://www.w3.org/2000/svg"><g clip-path="url('#clip0_418_303')"><rect width="84" height="84" rx="42" fill="url('#paint0_linear_418_303')"/><path fill-rule="evenodd" clip-rule="evenodd" d="m39.362 36 61.598 33.919V98.97H-17l.558-27.65L39.362 36Z" fill="#374C70"/><path fill-rule="evenodd" clip-rule="evenodd" d="m38.515 38.712 3.465.848-.09-2.258 18.919 10.417-3.254.135-1.368 1.007-7.694-4.344 5.914 5.655-1.544 1.137.951 2.586-6.865 3.101-6.975-6.91 4.487.817L41.62 46.5l6.873 3.196-5.816-5.178 2.618.883-6.78-6.688Z" fill="url('#paint1_linear_418_303')"/><path fill-rule="evenodd" clip-rule="evenodd" d="m61.578 50.048 2.317-.6 20.599 11.386-3.027 3.382-3.195-1.082 2.015 2.317-4.983 5.195-7.21-3.16 4.113 7.4-12.973-9.183-.346-5.836-3.252-4.44 3.036.78-1.038-4.221 4.607-.489-.663-1.449Z" fill="url('#paint2_linear_418_303')"/><path fill-rule="evenodd" clip-rule="evenodd" d="m34.263 56.653 6.524 3.472v-2.338L54.26 69.632l-2.133-4.739L60 67.485l7.715 9.286-5.974.85-12.087-5.75 6.1 6.6-7.202 1.024-14.288-12.832v-4.079l4.252 2.31-4.252-8.24Z" fill="url('#paint3_linear_418_303')"/><path fill-rule="evenodd" clip-rule="evenodd" d="m12.94 57.766-.595-3.15 6.727 2.38 6.727 5.48-6.716-.704-6.142-4.006Z" fill="url('#paint4_linear_418_303')"/><path fill-rule="evenodd" clip-rule="evenodd" d="m16.15 66.515-2.165-3.556 5.448 1.279-.877 1.442-2.406.835Z" fill="url('#paint5_linear_418_303')"/><path fill-rule="evenodd" clip-rule="evenodd" d="m30.165 53.556-1.89-3.891 5.172 1.613h-3.282v2.278Z" fill="url('#paint6_linear_418_303')"/><path fill-rule="evenodd" clip-rule="evenodd" d="M18.74 52.156h2.135l-.985-2.07 2.883 1.26 3.026 2.476-3.89 1.15-3.168-2.816Z" fill="url('#paint7_linear_418_303')"/><path opacity=".4" fill-rule="evenodd" clip-rule="evenodd" d="M53.054 52.82a.3.3 0 0 0 0 .425l2.121 2.122a.3.3 0 0 0 .424-.425l-2.12-2.121a.3.3 0 0 0-.425 0Zm21.213 21.214a.3.3 0 0 0 0 .424l2.121 2.122a.3.3 0 0 0 .425-.425l-2.122-2.12a.3.3 0 0 0-.424 0ZM23.02.212a.3.3 0 1 1 .425-.424l2.121 2.121a.3.3 0 1 1-.424.424L23.021.213Zm67.883 67.882a.3.3 0 1 1 .424-.424l2.122 2.121a.3.3 0 0 1-.425.425l-2.12-2.122Zm11.314 10.89a.3.3 0 0 0 0 .424l2.121 2.121a.3.3 0 1 0 .424-.424l-2.121-2.121a.3.3 0 0 0-.424 0ZM.02 20.212a.3.3 0 1 1 .425-.424l2.121 2.121a.3.3 0 1 1-.424.424l-2.121-2.12Zm67.883 67.882a.3.3 0 1 1 .424-.424l2.122 2.121a.3.3 0 0 1-.425.425l-2.12-2.122Zm11.314 10.89a.3.3 0 0 0 0 .424l2.121 2.121a.3.3 0 1 0 .424-.424l-2.12-2.121a.3.3 0 0 0-.425 0Z" fill="#fff"/><path opacity=".9" d="M27.293 21h8.157c2.513 0 4.55-2.045 4.55-4.568 0-2.522-2.037-4.567-4.55-4.567-.758 0-1.473.186-2.102.515C32.472 9.832 30.062 8 27.225 8c-3.576 0-6.475 2.91-6.475 6.5 0 .074.001.147.004.22A3.34 3.34 0 0 0 19 17.662 3.331 3.331 0 0 0 22.325 21h4.968-.068.068Z" fill="url('#paint8_linear_418_303')"/><path opacity=".9" d="M38.923 7h5.827C46.545 7 48 5.584 48 3.838 48 2.09 46.545.676 44.75.676c-.542 0-1.052.129-1.502.357C42.623-.732 40.901-2 38.876-2 36.321-2 34.25.015 34.25 2.5c0 .05 0 .102.003.152A2.303 2.303 0 0 0 33 4.69C33 5.965 34.063 7 35.375 7h3.548-.048.048Z" fill="url('#paint9_linear_418_303')"/><path opacity=".9" d="M55.503 12h7.38C65.157 12 67 10.112 67 7.784c0-2.329-1.843-4.216-4.117-4.216-.686 0-1.333.171-1.902.476C60.19 1.69 58.008 0 55.441 0c-3.235 0-5.858 2.686-5.858 6 0 .068.001.136.004.203A3.092 3.092 0 0 0 48 8.919C48 10.62 49.347 12 51.008 12h4.495-.061.061Z" fill="url('#paint10_linear_418_303')"/><path opacity=".9" d="M69.873 28h9.71C82.575 28 85 25.483 85 22.378c0-3.104-2.425-5.621-5.417-5.621-.902 0-1.754.229-2.502.634C76.039 14.254 73.169 12 69.79 12c-4.257 0-7.708 3.582-7.708 8 0 .09.002.18.005.27-1.243.694-2.088 2.055-2.088 3.622C60 26.16 61.772 28 63.958 28h5.914-.08.08Z" fill="url('#paint11_linear_418_303')"/><path opacity=".9" d="M7.873 38h9.71C20.575 38 23 35.483 23 32.378c0-3.104-2.425-5.621-5.417-5.621-.902 0-1.754.229-2.502.634C14.039 24.254 11.169 22 7.79 22 3.535 22 .084 25.582.084 30c0 .09.002.18.005.27C-1.155 30.965-2 32.326-2 33.893-2 36.16-.228 38 1.958 38h5.914-.08.08Z" fill="url('#paint12_linear_418_303')"/><path opacity=".9" d="M42.503 32h7.38C52.157 32 54 30.112 54 27.784c0-2.329-1.843-4.216-4.117-4.216-.686 0-1.333.171-1.902.476C47.19 21.69 45.008 20 42.441 20c-3.235 0-5.858 2.686-5.858 6 0 .068.001.136.004.203A3.092 3.092 0 0 0 35 28.919C35 30.62 36.347 32 38.008 32h4.495-.061.061Z" fill="url('#paint13_linear_418_303')"/></g><defs><linearGradient id="paint0_linear_418_303" x1="90.762" y1="84" x2="90.762" y2="-7.399" gradientUnits="userSpaceOnUse"><stop stop-color="#6E7C84"/><stop offset="1" stop-color="#668BA7"/></linearGradient><linearGradient id="paint1_linear_418_303" x1="31.023" y1="43.677" x2="43.318" y2="61.376" gradientUnits="userSpaceOnUse"><stop stop-color="#5B8189"/><stop offset="1" stop-color="#A5BABD"/></linearGradient><linearGradient id="paint2_linear_418_303" x1="45.939" y1="57.682" x2="61.808" y2="80.576" gradientUnits="userSpaceOnUse"><stop stop-color="#5B8189"/><stop offset="1" stop-color="#A5BABD"/></linearGradient><linearGradient id="paint3_linear_418_303" x1="23.022" y1="64.047" x2="35.705" y2="87.67" gradientUnits="userSpaceOnUse"><stop stop-color="#5B8189"/><stop offset="1" stop-color="#A5BABD"/></linearGradient><linearGradient id="paint4_linear_418_303" x1="7.824" y1="57.16" x2="11.797" y2="65.808" gradientUnits="userSpaceOnUse"><stop stop-color="#5B8189"/><stop offset="1" stop-color="#A5BABD"/></linearGradient><linearGradient id="paint5_linear_418_303" x1="12.155" y1="64.11" x2="14.079" y2="67.86" gradientUnits="userSpaceOnUse"><stop stop-color="#5B8189"/><stop offset="1" stop-color="#A5BABD"/></linearGradient><linearGradient id="paint6_linear_418_303" x1="26.537" y1="50.924" x2="28.808" y2="54.765" gradientUnits="userSpaceOnUse"><stop stop-color="#5B8189"/><stop offset="1" stop-color="#A5BABD"/></linearGradient><linearGradient id="paint7_linear_418_303" x1="16.369" y1="51.667" x2="19.103" y2="56.689" gradientUnits="userSpaceOnUse"><stop stop-color="#5B8189"/><stop offset="1" stop-color="#A5BABD"/></linearGradient><linearGradient id="paint8_linear_418_303" x1="22.874" y1="-18.458" x2="43.505" y2="19.073" gradientUnits="userSpaceOnUse"><stop stop-color="#fff"/><stop offset="1" stop-color="#fff" stop-opacity=".01"/></linearGradient><linearGradient id="paint9_linear_418_303" x1="35.767" y1="-20.317" x2="49.808" y2="6.037" gradientUnits="userSpaceOnUse"><stop stop-color="#fff"/><stop offset="1" stop-color="#fff" stop-opacity=".01"/></linearGradient><linearGradient id="paint10_linear_418_303" x1="51.505" y1="-24.422" x2="70.752" y2="9.896" gradientUnits="userSpaceOnUse"><stop stop-color="#fff"/><stop offset="1" stop-color="#fff" stop-opacity=".01"/></linearGradient><linearGradient id="paint11_linear_418_303" x1="64.612" y1="-20.563" x2="90.451" y2="24.902" gradientUnits="userSpaceOnUse"><stop stop-color="#fff"/><stop offset="1" stop-color="#fff" stop-opacity=".01"/></linearGradient><linearGradient id="paint12_linear_418_303" x1="2.612" y1="-10.563" x2="28.451" y2="34.902" gradientUnits="userSpaceOnUse"><stop stop-color="#fff"/><stop offset="1" stop-color="#fff" stop-opacity=".01"/></linearGradient><linearGradient id="paint13_linear_418_303" x1="38.505" y1="-4.422" x2="57.752" y2="29.896" gradientUnits="userSpaceOnUse"><stop stop-color="#fff"/><stop offset="1" stop-color="#fff" stop-opacity=".01"/></linearGradient><clipPath id="clip0_418_303"><rect width="84" height="84" rx="42" fill="#fff"/></clipPath></defs></svg>