<svg width="84" height="84" viewBox="0 0 84 84" fill="none" xmlns="http://www.w3.org/2000/svg">
<g clip-path="url(#clip0_407_1143)">
<rect width="84" height="84" rx="42" fill="url(#paint0_linear_407_1143)"/>
<path fill-rule="evenodd" clip-rule="evenodd" d="M65.3537 71.7987H57.0666V63.0192H52.6327V55.6438H51.4085V43.5298C51.4085 43.2372 51.1713 43 50.8787 43V43C50.5861 43 50.349 43.2372 50.349 43.5298V55.6438H49.1185V63.0192H44.6846V71.7987H36.4606V94.8619H34.7512H67H65.3537V71.7987Z" fill="#111125"/>
<path fill-rule="evenodd" clip-rule="evenodd" d="M41 81.8875H43V75H41V81.8875Z" fill="#AD9657"/>
<path fill-rule="evenodd" clip-rule="evenodd" d="M50 81.8875H52V75H50V81.8875Z" fill="#AD9657"/>
<path fill-rule="evenodd" clip-rule="evenodd" d="M59 81.8875H61V75H59V81.8875Z" fill="#AD9657"/>
<path opacity="0.4" fill-rule="evenodd" clip-rule="evenodd" d="M17.3011 19.3011C17.1839 19.4183 17.1839 19.6082 17.3011 19.7254L19.4224 21.8467C19.5396 21.9638 19.7295 21.9638 19.8467 21.8467C19.9638 21.7295 19.9638 21.5396 19.8467 21.4224L17.7253 19.3011C17.6082 19.1839 17.4182 19.1839 17.3011 19.3011ZM46.1209 46.1209C46.0037 46.2381 46.0037 46.428 46.1209 46.5452L48.2422 48.6665C48.3594 48.7836 48.5493 48.7836 48.6665 48.6665C48.7836 48.5493 48.7836 48.3594 48.6665 48.2422L46.5451 46.1209C46.428 46.0037 46.238 46.0037 46.1209 46.1209Z" fill="white"/>
<path opacity="0.4" fill-rule="evenodd" clip-rule="evenodd" d="M38.7153 15.7153C38.5981 15.8325 38.5981 16.0224 38.7153 16.1396L40.8366 18.2609C40.9538 18.3781 41.1437 18.3781 41.2609 18.2609C41.378 18.1437 41.378 17.9538 41.2609 17.8366L39.1396 15.7153C39.0224 15.5982 38.8325 15.5982 38.7153 15.7153ZM50.029 27.029C49.9118 27.1462 49.9118 27.3361 50.029 27.4533L52.1503 29.5746C52.2675 29.6918 52.4574 29.6918 52.5746 29.5746C52.6917 29.4574 52.6917 29.2675 52.5746 29.1503L50.4533 27.029C50.3361 26.9119 50.1462 26.9119 50.029 27.029ZM53.3427 42.767C53.2256 42.6498 53.2256 42.4599 53.3427 42.3427C53.4599 42.2256 53.6498 42.2256 53.767 42.3427L55.8883 44.464C56.0055 44.5812 56.0055 44.7712 55.8883 44.8883C55.7711 45.0055 55.5812 45.0055 55.464 44.8883L53.3427 42.767ZM72.6564 49.6564C72.5393 49.7736 72.5393 49.9635 72.6564 50.0807L74.7777 52.202C74.8949 52.3192 75.0848 52.3192 75.202 52.202C75.3192 52.0849 75.3192 51.8949 75.202 51.7778L73.0807 49.6564C72.9635 49.5393 72.7736 49.5393 72.6564 49.6564Z" fill="white"/>
<path opacity="0.4" fill-rule="evenodd" clip-rule="evenodd" d="M47.4016 1.82585C47.2844 1.7087 47.2844 1.51875 47.4016 1.40159C47.5187 1.28443 47.7087 1.28443 47.8258 1.40159L49.9472 3.52291C50.0643 3.64007 50.0643 3.83002 49.9472 3.94717C49.83 4.06433 49.6401 4.06433 49.5229 3.94717L47.4016 1.82585ZM58.7153 13.1396C58.5981 13.0224 58.5981 12.8325 58.7153 12.7153C58.8324 12.5981 59.0224 12.5981 59.1396 12.7153L61.2609 14.8366C61.378 14.9538 61.378 15.1437 61.2609 15.2609C61.1437 15.378 60.9538 15.378 60.8366 15.2609L58.7153 13.1396ZM70.029 24.029C69.9118 24.1462 69.9118 24.3361 70.029 24.4533L72.1503 26.5746C72.2675 26.6917 72.4574 26.6917 72.5746 26.5746C72.6917 26.4574 72.6917 26.2675 72.5746 26.1503L70.4533 24.029C70.3361 23.9118 70.1462 23.9118 70.029 24.029Z" fill="white"/>
<path opacity="0.4" fill-rule="evenodd" clip-rule="evenodd" d="M15.7153 36.1396C15.5981 36.0224 15.5981 35.8325 15.7153 35.7153C15.8325 35.5982 16.0224 35.5982 16.1396 35.7153L18.2609 37.8366C18.378 37.9538 18.378 38.1437 18.2609 38.2609C18.1437 38.3781 17.9538 38.3781 17.8366 38.2609L15.7153 36.1396ZM35.029 47.4533C34.9118 47.3361 34.9118 47.1462 35.029 47.029C35.1462 46.9119 35.3361 46.9119 35.4533 47.029L37.5746 49.1503C37.6917 49.2675 37.6917 49.4574 37.5746 49.5746C37.4574 49.6918 37.2675 49.6918 37.1503 49.5746L35.029 47.4533ZM38.3427 58.3427C38.2256 58.4599 38.2256 58.6498 38.3427 58.767L40.464 60.8883C40.5812 61.0055 40.7711 61.0055 40.8883 60.8883C41.0055 60.7712 41.0055 60.5812 40.8883 60.464L38.767 58.3427C38.6498 58.2256 38.4599 58.2256 38.3427 58.3427Z" fill="white"/>
<path opacity="0.4" fill-rule="evenodd" clip-rule="evenodd" d="M5.1087 43.1087C4.99154 43.2258 4.99154 43.4158 5.1087 43.5329L8.64423 47.0685C8.76139 47.1856 8.95134 47.1856 9.06849 47.0685C9.18565 46.9513 9.18565 46.7614 9.06849 46.6442L5.53296 43.1087C5.4158 42.9915 5.22585 42.9915 5.1087 43.1087ZM22.1295 51.1295C22.0124 51.2467 22.0124 51.4366 22.1295 51.5538L25.665 55.0893C25.7822 55.2065 25.9722 55.2065 26.0893 55.0893C26.2065 54.9721 26.2065 54.7822 26.0893 54.665L22.5538 51.1295C22.4366 51.0123 22.2467 51.0123 22.1295 51.1295Z" fill="white"/>
<path opacity="0.4" d="M4.40159 52.8259C4.28443 52.7087 4.28443 52.5187 4.40159 52.4016C4.51875 52.2844 4.7087 52.2844 4.82585 52.4016L7.65428 55.23C7.77144 55.3472 7.77144 55.5371 7.65428 55.6543C7.53712 55.7714 7.34717 55.7714 7.23002 55.6543L4.40159 52.8259Z" fill="white"/>
<path opacity="0.4" fill-rule="evenodd" clip-rule="evenodd" d="M54.5229 3.5229C54.4057 3.64005 54.4057 3.83 54.5229 3.94716L55.23 4.65427C55.3472 4.77142 55.5371 4.77142 55.6543 4.65427C55.7714 4.53711 55.7714 4.34716 55.6543 4.23L54.9472 3.5229C54.83 3.40574 54.6401 3.40574 54.5229 3.5229ZM67.9579 16.9579C67.8408 17.0751 67.8408 17.265 67.9579 17.3822L68.665 18.0893C68.7822 18.2065 68.9721 18.2065 69.0893 18.0893C69.2065 17.9721 69.2065 17.7822 69.0893 17.665L68.3822 16.9579C68.265 16.8408 68.0751 16.8408 67.9579 16.9579Z" fill="white"/>
<path opacity="0.4" fill-rule="evenodd" clip-rule="evenodd" d="M27.1798 9.60402C27.0626 9.48686 27.0626 9.29691 27.1798 9.17976C27.2969 9.0626 27.4869 9.0626 27.604 9.17976L34.6751 16.2508C34.7922 16.368 34.7922 16.5579 34.6751 16.6751C34.5579 16.7922 34.368 16.7922 34.2508 16.6751L27.1798 9.60402ZM1.1549 33.8121C1.03774 33.695 1.03774 33.505 1.1549 33.3879C1.27206 33.2707 1.46201 33.2707 1.57916 33.3879L8.65023 40.4589C8.76739 40.5761 8.76739 40.766 8.65023 40.8832C8.53307 41.0004 8.34312 41.0004 8.22597 40.8832L1.1549 33.8121ZM63.3635 51.3635C63.2464 51.4807 63.2464 51.6706 63.3635 51.7878L68.5925 56.8831C68.7096 57.0003 68.8996 57.0003 69.0167 56.8831C69.1339 56.766 69.1339 56.576 69.0167 56.4589L63.7878 51.3635C63.6706 51.2464 63.4807 51.2464 63.3635 51.3635Z" fill="white"/>
<path opacity="0.6" d="M4.17976 13.604C4.0626 13.4869 4.0626 13.2969 4.17976 13.1798C4.29691 13.0626 4.48686 13.0626 4.60402 13.1798L11.6751 20.2508C11.7922 20.368 11.7922 20.5579 11.6751 20.6751C11.5579 20.7922 11.368 20.7922 11.2508 20.6751L4.17976 13.604Z" fill="white"/>
<path opacity="0.120554" d="M43.1549 28.8122C43.0377 28.695 43.0377 28.505 43.1549 28.3879C43.2721 28.2707 43.462 28.2707 43.5792 28.3879L45.7005 30.5092C45.8176 30.6264 45.8176 30.8163 45.7005 30.9335C45.5833 31.0506 45.3934 31.0506 45.2762 30.9335L43.1549 28.8122Z" fill="white"/>
<path opacity="0.5" d="M37.029 4.45326C36.9118 4.33611 36.9118 4.14616 37.029 4.029C37.1462 3.91184 37.3361 3.91184 37.4533 4.029L39.5746 6.15032C39.6917 6.26748 39.6917 6.45743 39.5746 6.57458C39.4574 6.69174 39.2675 6.69174 39.1503 6.57458L37.029 4.45326Z" fill="white"/>
<path opacity="0.5" d="M56.4224 22.8467C56.3052 22.7295 56.3052 22.5396 56.4224 22.4224C56.5396 22.3052 56.7295 22.3052 56.8467 22.4224L62.5035 28.0793C62.6207 28.1964 62.6207 28.3864 62.5035 28.5035C62.3864 28.6207 62.1964 28.6207 62.0792 28.5035L56.4224 22.8467Z" fill="white"/>
</g>
<defs>
<linearGradient id="paint0_linear_407_1143" x1="126" y1="42" x2="42" y2="-42" gradientUnits="userSpaceOnUse">
<stop stop-color="#253363"/>
<stop offset="1" stop-color="#5A79E8"/>
</linearGradient>
<clipPath id="clip0_407_1143">
<rect width="84" height="84" rx="42" fill="white"/>
</clipPath>
</defs>
</svg>
